%FSLAX45Y45*%
G04 Gerber Fmt 4.5, Leading zero omitted, Abs format (unit mm)*
G04 Created by KiCad (PCBNEW (6.0.1-0)) date 2022-03-14 11:45:21*
%MOMM*%
%LPD*%
G01*
G04 APERTURE LIST*
%TA.AperFunction,Profile*%
%ADD10C,0.100000*%
%TD*%
%ADD11C,0.200000*%
G04 APERTURE END LIST*
D10*
X10586000Y-4639000D02*
X10586000Y-6970000D01*
X11940000Y-4639000D02*
X11940000Y-6970000D01*
X10586000Y-6970000D02*
X11940000Y-6970000D01*
X10586000Y-4639000D02*
X11940000Y-4639000D01*
D11*
X10838619Y-7285476D02*
X10838619Y-7085476D01*
X10886238Y-7085476D01*
X10914810Y-7095000D01*
X10933857Y-7114048D01*
X10943381Y-7133095D01*
X10952905Y-7171190D01*
X10952905Y-7199762D01*
X10943381Y-7237857D01*
X10933857Y-7256905D01*
X10914810Y-7275952D01*
X10886238Y-7285476D01*
X10838619Y-7285476D01*
X11038619Y-7285476D02*
X11038619Y-7152143D01*
X11038619Y-7190238D02*
X11048143Y-7171190D01*
X11057667Y-7161667D01*
X11076714Y-7152143D01*
X11095762Y-7152143D01*
X11162429Y-7285476D02*
X11162429Y-7152143D01*
X11162429Y-7085476D02*
X11152905Y-7095000D01*
X11162429Y-7104524D01*
X11171952Y-7095000D01*
X11162429Y-7085476D01*
X11162429Y-7104524D01*
X11286238Y-7285476D02*
X11267190Y-7275952D01*
X11257667Y-7256905D01*
X11257667Y-7085476D01*
X11391000Y-7285476D02*
X11371952Y-7275952D01*
X11362428Y-7256905D01*
X11362428Y-7085476D01*
X11619571Y-7285476D02*
X11619571Y-7085476D01*
X11686238Y-7228333D01*
X11752905Y-7085476D01*
X11752905Y-7285476D01*
X11933857Y-7285476D02*
X11933857Y-7180714D01*
X11924333Y-7161667D01*
X11905286Y-7152143D01*
X11867190Y-7152143D01*
X11848143Y-7161667D01*
X11933857Y-7275952D02*
X11914809Y-7285476D01*
X11867190Y-7285476D01*
X11848143Y-7275952D01*
X11838619Y-7256905D01*
X11838619Y-7237857D01*
X11848143Y-7218809D01*
X11867190Y-7209286D01*
X11914809Y-7209286D01*
X11933857Y-7199762D01*
X12029095Y-7152143D02*
X12029095Y-7352143D01*
X12029095Y-7161667D02*
X12048143Y-7152143D01*
X12086238Y-7152143D01*
X12105286Y-7161667D01*
X12114809Y-7171190D01*
X12124333Y-7190238D01*
X12124333Y-7247381D01*
X12114809Y-7266428D01*
X12105286Y-7275952D01*
X12086238Y-7285476D01*
X12048143Y-7285476D01*
X12029095Y-7275952D01*
X12210048Y-7266428D02*
X12219571Y-7275952D01*
X12210048Y-7285476D01*
X12200524Y-7275952D01*
X12210048Y-7266428D01*
X12210048Y-7285476D01*
X12210048Y-7161667D02*
X12219571Y-7171190D01*
X12210048Y-7180714D01*
X12200524Y-7171190D01*
X12210048Y-7161667D01*
X12210048Y-7180714D01*
M02*
