G04 #@! TF.GenerationSoftware,KiCad,Pcbnew,(6.0.1-0)*
G04 #@! TF.CreationDate,2022-03-15T16:22:54-04:00*
G04 #@! TF.ProjectId,MBC1-TSOP40,4d424331-2d54-4534-9f50-34302e6b6963,rev?*
G04 #@! TF.SameCoordinates,Original*
G04 #@! TF.FileFunction,Copper,L2,Bot*
G04 #@! TF.FilePolarity,Positive*
%FSLAX46Y46*%
G04 Gerber Fmt 4.6, Leading zero omitted, Abs format (unit mm)*
G04 Created by KiCad (PCBNEW (6.0.1-0)) date 2022-03-15 16:22:54*
%MOMM*%
%LPD*%
G01*
G04 APERTURE LIST*
G04 #@! TA.AperFunction,ViaPad*
%ADD10C,0.800000*%
G04 #@! TD*
G04 #@! TA.AperFunction,ViaPad*
%ADD11C,0.400000*%
G04 #@! TD*
G04 #@! TA.AperFunction,Conductor*
%ADD12C,0.250000*%
G04 #@! TD*
G04 #@! TA.AperFunction,Conductor*
%ADD13C,0.200000*%
G04 #@! TD*
G04 #@! TA.AperFunction,Conductor*
%ADD14C,0.300000*%
G04 #@! TD*
G04 APERTURE END LIST*
D10*
G04 #@! TO.N,VCC*
X119400000Y-49300000D03*
G04 #@! TO.N,A18*
X119400000Y-50570000D03*
D11*
G04 #@! TO.N,A17*
X116370000Y-51840000D03*
D10*
X119400000Y-51840000D03*
D11*
G04 #@! TO.N,A14*
X114870000Y-53110000D03*
D10*
X119400000Y-53110000D03*
D11*
G04 #@! TO.N,A13*
X114370000Y-54380000D03*
D10*
X119400000Y-54380000D03*
D11*
G04 #@! TO.N,A8*
X109875000Y-55650000D03*
D10*
X119400000Y-55650000D03*
D11*
G04 #@! TO.N,A9*
X110375000Y-56925000D03*
D10*
X119400000Y-56920000D03*
D11*
G04 #@! TO.N,A11*
X111370000Y-58190000D03*
D10*
X119400000Y-58190000D03*
D11*
G04 #@! TO.N,/OE*
X115850000Y-59450000D03*
D10*
X119400000Y-59460000D03*
G04 #@! TO.N,A10*
X119400000Y-60730000D03*
D11*
X110875000Y-60730000D03*
D10*
G04 #@! TO.N,CE*
X119400000Y-62000000D03*
D11*
X113370000Y-62000000D03*
G04 #@! TO.N,D7*
X114875000Y-63250000D03*
D10*
X119400000Y-63270000D03*
D11*
G04 #@! TO.N,D6*
X114375000Y-64525000D03*
D10*
X119400000Y-64540000D03*
D11*
G04 #@! TO.N,D5*
X113875000Y-65800000D03*
D10*
X119400000Y-65810000D03*
G04 #@! TO.N,D4*
X119400000Y-67080000D03*
D11*
X113375000Y-66400000D03*
G04 #@! TO.N,D3*
X111690000Y-66400000D03*
D10*
X119400000Y-68350000D03*
D11*
G04 #@! TO.N,GND*
X112120000Y-67780000D03*
D10*
X105850000Y-68350000D03*
G04 #@! TO.N,D2*
X105850000Y-67080000D03*
D11*
X110875000Y-67100000D03*
G04 #@! TO.N,D1*
X110375000Y-65825000D03*
D10*
X105850000Y-65810000D03*
G04 #@! TO.N,D0*
X105850000Y-64540000D03*
D11*
X109875000Y-64550000D03*
D10*
G04 #@! TO.N,A0*
X105850000Y-63270000D03*
D11*
X109375000Y-63275000D03*
G04 #@! TO.N,A1*
X108875000Y-62000000D03*
D10*
X105850000Y-62000000D03*
G04 #@! TO.N,A2*
X105850000Y-60730000D03*
D11*
X108375000Y-60750000D03*
D10*
G04 #@! TO.N,A3*
X105850000Y-59460000D03*
D11*
X107875000Y-59450000D03*
G04 #@! TO.N,A4*
X107875000Y-58200000D03*
D10*
X105850000Y-58190000D03*
G04 #@! TO.N,A5*
X105850000Y-56920000D03*
D11*
X108375000Y-56925000D03*
D10*
G04 #@! TO.N,A6*
X105850000Y-55650000D03*
D11*
X108875000Y-55675000D03*
D10*
G04 #@! TO.N,A7*
X105850000Y-54380000D03*
D11*
X109350000Y-54375000D03*
D10*
G04 #@! TO.N,A12*
X105850000Y-53110000D03*
D11*
X113875000Y-53100000D03*
G04 #@! TO.N,A15*
X115370000Y-51850000D03*
D10*
X105850000Y-51840000D03*
G04 #@! TO.N,A16*
X105850000Y-50570000D03*
D11*
X115870000Y-50570000D03*
G04 #@! TO.N,A19*
X117375000Y-49325000D03*
D10*
X105850000Y-49300000D03*
D11*
G04 #@! TO.N,WE*
X106650000Y-58775000D03*
X116375000Y-58775000D03*
G04 #@! TO.N,A20*
X117370000Y-57450000D03*
X107175000Y-57450000D03*
G04 #@! TO.N,A21*
X111060000Y-47470000D03*
X116870000Y-51130000D03*
G04 #@! TD*
D12*
G04 #@! TO.N,D3*
X111690000Y-66400000D02*
X112390000Y-67100000D01*
X112390000Y-67100000D02*
X117125000Y-67100000D01*
D13*
G04 #@! TO.N,A15*
X115370000Y-51850000D02*
X106075000Y-51850000D01*
X106075000Y-51850000D02*
X106065000Y-51840000D01*
X106065000Y-51840000D02*
X105960020Y-51840000D01*
G04 #@! TO.N,A17*
X116370000Y-51840000D02*
X119299980Y-51840000D01*
G04 #@! TO.N,A14*
X114870000Y-53110000D02*
X119299980Y-53110000D01*
G04 #@! TO.N,A13*
X114370000Y-54380000D02*
X119299980Y-54380000D01*
G04 #@! TO.N,A8*
X109875000Y-55650000D02*
X119299980Y-55650000D01*
G04 #@! TO.N,A9*
X119299980Y-56925000D02*
X119299980Y-56920000D01*
X110375000Y-56925000D02*
X119299980Y-56925000D01*
G04 #@! TO.N,A11*
X111370000Y-58190000D02*
X119299980Y-58190000D01*
G04 #@! TO.N,/OE*
X115850000Y-59450000D02*
X119299980Y-59450000D01*
X119299980Y-59450000D02*
X119299980Y-59460000D01*
G04 #@! TO.N,A10*
X110875000Y-60730000D02*
X119299980Y-60730000D01*
G04 #@! TO.N,CE*
X113370000Y-62000000D02*
X119299980Y-62000000D01*
G04 #@! TO.N,D7*
X119299980Y-63250000D02*
X119299980Y-63270000D01*
X114875000Y-63250000D02*
X119299980Y-63250000D01*
G04 #@! TO.N,D6*
X114375000Y-64525000D02*
X119299980Y-64525000D01*
X119299980Y-64525000D02*
X119299980Y-64540000D01*
G04 #@! TO.N,D5*
X113875000Y-65800000D02*
X119299980Y-65800000D01*
X119299980Y-65800000D02*
X119299980Y-65810000D01*
G04 #@! TO.N,D4*
X117400000Y-66400000D02*
X118080000Y-67080000D01*
X118080000Y-67080000D02*
X119299980Y-67080000D01*
X113375000Y-66400000D02*
X117400000Y-66400000D01*
G04 #@! TO.N,D3*
X117125000Y-67100000D02*
X118400000Y-68375000D01*
X119299980Y-68375000D02*
X119299980Y-68350000D01*
X118400000Y-68375000D02*
X119299980Y-68375000D01*
D14*
G04 #@! TO.N,GND*
X106010020Y-68189980D02*
X106010020Y-68350000D01*
X106420000Y-67780000D02*
X106010020Y-68189980D01*
X112120000Y-67780000D02*
X106420000Y-67780000D01*
D13*
G04 #@! TO.N,D2*
X110875000Y-67100000D02*
X105960020Y-67100000D01*
X105960020Y-67100000D02*
X105960020Y-67080000D01*
G04 #@! TO.N,D1*
X110375000Y-65825000D02*
X105960020Y-65825000D01*
X105960020Y-65825000D02*
X105960020Y-65810000D01*
G04 #@! TO.N,D0*
X105960020Y-64550000D02*
X105960020Y-64540000D01*
X109875000Y-64550000D02*
X105960020Y-64550000D01*
G04 #@! TO.N,A0*
X109375000Y-63275000D02*
X105960020Y-63275000D01*
X105960020Y-63275000D02*
X105960020Y-63270000D01*
G04 #@! TO.N,A1*
X108875000Y-62000000D02*
X105960020Y-62000000D01*
G04 #@! TO.N,A2*
X105960020Y-60750000D02*
X105960020Y-60730000D01*
X108375000Y-60750000D02*
X105960020Y-60750000D01*
G04 #@! TO.N,A3*
X107875000Y-59450000D02*
X107865000Y-59460000D01*
X107865000Y-59460000D02*
X105960020Y-59460000D01*
G04 #@! TO.N,A4*
X105960020Y-58200000D02*
X105960020Y-58190000D01*
X107875000Y-58200000D02*
X105960020Y-58200000D01*
G04 #@! TO.N,A5*
X108375000Y-56925000D02*
X105960020Y-56925000D01*
X105960020Y-56925000D02*
X105960020Y-56920000D01*
G04 #@! TO.N,A6*
X105960020Y-55675000D02*
X105960020Y-55650000D01*
X108875000Y-55675000D02*
X105960020Y-55675000D01*
G04 #@! TO.N,A7*
X109350000Y-54375000D02*
X105960020Y-54375000D01*
X105960020Y-54375000D02*
X105960020Y-54380000D01*
G04 #@! TO.N,A12*
X113875000Y-53100000D02*
X105960020Y-53100000D01*
X105960020Y-53100000D02*
X105960020Y-53110000D01*
G04 #@! TO.N,A16*
X115870000Y-50570000D02*
X105960020Y-50570000D01*
D12*
G04 #@! TO.N,A19*
X117375000Y-49325000D02*
X105985020Y-49325000D01*
X105985020Y-49325000D02*
X105985020Y-49300000D01*
G04 #@! TO.N,WE*
X106650000Y-58775000D02*
X116375000Y-58775000D01*
D13*
G04 #@! TO.N,A20*
X117370000Y-57450000D02*
X107175000Y-57450000D01*
D12*
G04 #@! TO.N,A21*
X118190000Y-49810000D02*
X118190000Y-48270000D01*
X116870000Y-51130000D02*
X118190000Y-49810000D01*
X117390000Y-47470000D02*
X111060000Y-47470000D01*
X118190000Y-48270000D02*
X117390000Y-47470000D01*
G04 #@! TD*
M02*
