%FSLAX45Y45*%
G04 Gerber Fmt 4.5, Leading zero omitted, Abs format (unit mm)*
G04 Created by KiCad (PCBNEW (6.0.1-0)) date 2022-03-14 11:45:21*
%MOMM*%
%LPD*%
G01*
G04 APERTURE LIST*
%TA.AperFunction,Profile*%
%ADD10C,0.100000*%
%TD*%
%ADD11C,0.200000*%
%ADD12C,0.020000*%
%ADD13C,0.060000*%
G04 APERTURE END LIST*
D10*
X10586000Y-4639000D02*
X10586000Y-6970000D01*
X11940000Y-4639000D02*
X11940000Y-6970000D01*
X10586000Y-6970000D02*
X11940000Y-6970000D01*
X10586000Y-4639000D02*
X11940000Y-4639000D01*
D11*
D12*
X10655000Y-5867500D02*
X10675000Y-5887500D01*
X10675000Y-5867500D02*
X10655000Y-5887500D01*
X10707500Y-5735000D02*
X10727500Y-5755000D01*
X10727500Y-5735000D02*
X10707500Y-5755000D01*
X10777500Y-5810000D02*
X10797500Y-5830000D01*
X10797500Y-5810000D02*
X10777500Y-5830000D01*
X10777500Y-5935000D02*
X10797500Y-5955000D01*
X10797500Y-5935000D02*
X10777500Y-5955000D01*
X10827500Y-5682500D02*
X10847500Y-5702500D01*
X10847500Y-5682500D02*
X10827500Y-5702500D01*
X10827500Y-6065000D02*
X10847500Y-6085000D01*
X10847500Y-6065000D02*
X10827500Y-6085000D01*
X10877500Y-5557500D02*
X10897500Y-5577500D01*
X10897500Y-5557500D02*
X10877500Y-5577500D01*
X10877500Y-6190000D02*
X10897500Y-6210000D01*
X10897500Y-6190000D02*
X10877500Y-6210000D01*
X10925000Y-5427500D02*
X10945000Y-5447500D01*
X10945000Y-5427500D02*
X10925000Y-5447500D01*
X10927500Y-6317500D02*
X10947500Y-6337500D01*
X10947500Y-6317500D02*
X10927500Y-6337500D01*
X10977500Y-5555000D02*
X10997500Y-5575000D01*
X10997500Y-5555000D02*
X10977500Y-5575000D01*
X10977500Y-6445000D02*
X10997500Y-6465000D01*
X10997500Y-6445000D02*
X10977500Y-6465000D01*
X11027500Y-5682500D02*
X11047500Y-5702500D01*
X11047500Y-5682500D02*
X11027500Y-5702500D01*
X11027500Y-6572500D02*
X11047500Y-6592500D01*
X11047500Y-6572500D02*
X11027500Y-6592500D01*
X11077500Y-6063000D02*
X11097500Y-6083000D01*
X11097500Y-6063000D02*
X11077500Y-6083000D01*
X11077500Y-6700000D02*
X11097500Y-6720000D01*
X11097500Y-6700000D02*
X11077500Y-6720000D01*
X11096000Y-4737000D02*
X11116000Y-4757000D01*
X11116000Y-4737000D02*
X11096000Y-4757000D01*
X11127000Y-5809000D02*
X11147000Y-5829000D01*
X11147000Y-5809000D02*
X11127000Y-5829000D01*
X11127500Y-6700000D02*
X11147500Y-6720000D01*
X11147500Y-6700000D02*
X11127500Y-6720000D01*
X11202000Y-6768000D02*
X11222000Y-6788000D01*
X11222000Y-6768000D02*
X11202000Y-6788000D01*
X11327000Y-6190000D02*
X11347000Y-6210000D01*
X11347000Y-6190000D02*
X11327000Y-6210000D01*
X11327500Y-6630000D02*
X11347500Y-6650000D01*
X11347500Y-6630000D02*
X11327500Y-6650000D01*
X11377500Y-5300000D02*
X11397500Y-5320000D01*
X11397500Y-5300000D02*
X11377500Y-5320000D01*
X11377500Y-6570000D02*
X11397500Y-6590000D01*
X11397500Y-6570000D02*
X11377500Y-6590000D01*
X11427000Y-5428000D02*
X11447000Y-5448000D01*
X11447000Y-5428000D02*
X11427000Y-5448000D01*
X11427500Y-6442500D02*
X11447500Y-6462500D01*
X11447500Y-6442500D02*
X11427500Y-6462500D01*
X11477000Y-5301000D02*
X11497000Y-5321000D01*
X11497000Y-5301000D02*
X11477000Y-5321000D01*
X11477500Y-6315000D02*
X11497500Y-6335000D01*
X11497500Y-6315000D02*
X11477500Y-6335000D01*
X11525000Y-5175000D02*
X11545000Y-5195000D01*
X11545000Y-5175000D02*
X11525000Y-5195000D01*
X11575000Y-5935000D02*
X11595000Y-5955000D01*
X11595000Y-5935000D02*
X11575000Y-5955000D01*
X11577000Y-5047000D02*
X11597000Y-5067000D01*
X11597000Y-5047000D02*
X11577000Y-5067000D01*
X11627000Y-5174000D02*
X11647000Y-5194000D01*
X11647000Y-5174000D02*
X11627000Y-5194000D01*
X11627500Y-5867500D02*
X11647500Y-5887500D01*
X11647500Y-5867500D02*
X11627500Y-5887500D01*
X11677000Y-5103000D02*
X11697000Y-5123000D01*
X11697000Y-5103000D02*
X11677000Y-5123000D01*
X11727000Y-5735000D02*
X11747000Y-5755000D01*
X11747000Y-5735000D02*
X11727000Y-5755000D01*
X11727500Y-4922500D02*
X11747500Y-4942500D01*
X11747500Y-4922500D02*
X11727500Y-4942500D01*
D13*
X10615000Y-4930000D02*
G75*
G03*
X10615000Y-4930000I-30000J0D01*
G01*
X10615000Y-5057000D02*
G75*
G03*
X10615000Y-5057000I-30000J0D01*
G01*
X10615000Y-5184000D02*
G75*
G03*
X10615000Y-5184000I-30000J0D01*
G01*
X10615000Y-5311000D02*
G75*
G03*
X10615000Y-5311000I-30000J0D01*
G01*
X10615000Y-5438000D02*
G75*
G03*
X10615000Y-5438000I-30000J0D01*
G01*
X10615000Y-5565000D02*
G75*
G03*
X10615000Y-5565000I-30000J0D01*
G01*
X10615000Y-5692000D02*
G75*
G03*
X10615000Y-5692000I-30000J0D01*
G01*
X10615000Y-5819000D02*
G75*
G03*
X10615000Y-5819000I-30000J0D01*
G01*
X10615000Y-5946000D02*
G75*
G03*
X10615000Y-5946000I-30000J0D01*
G01*
X10615000Y-6073000D02*
G75*
G03*
X10615000Y-6073000I-30000J0D01*
G01*
X10615000Y-6200000D02*
G75*
G03*
X10615000Y-6200000I-30000J0D01*
G01*
X10615000Y-6327000D02*
G75*
G03*
X10615000Y-6327000I-30000J0D01*
G01*
X10615000Y-6454000D02*
G75*
G03*
X10615000Y-6454000I-30000J0D01*
G01*
X10615000Y-6581000D02*
G75*
G03*
X10615000Y-6581000I-30000J0D01*
G01*
X10615000Y-6708000D02*
G75*
G03*
X10615000Y-6708000I-30000J0D01*
G01*
X10615000Y-6835000D02*
G75*
G03*
X10615000Y-6835000I-30000J0D01*
G01*
X11970000Y-4930000D02*
G75*
G03*
X11970000Y-4930000I-30000J0D01*
G01*
X11970000Y-5057000D02*
G75*
G03*
X11970000Y-5057000I-30000J0D01*
G01*
X11970000Y-5184000D02*
G75*
G03*
X11970000Y-5184000I-30000J0D01*
G01*
X11970000Y-5311000D02*
G75*
G03*
X11970000Y-5311000I-30000J0D01*
G01*
X11970000Y-5438000D02*
G75*
G03*
X11970000Y-5438000I-30000J0D01*
G01*
X11970000Y-5565000D02*
G75*
G03*
X11970000Y-5565000I-30000J0D01*
G01*
X11970000Y-5692000D02*
G75*
G03*
X11970000Y-5692000I-30000J0D01*
G01*
X11970000Y-5819000D02*
G75*
G03*
X11970000Y-5819000I-30000J0D01*
G01*
X11970000Y-5946000D02*
G75*
G03*
X11970000Y-5946000I-30000J0D01*
G01*
X11970000Y-6073000D02*
G75*
G03*
X11970000Y-6073000I-30000J0D01*
G01*
X11970000Y-6200000D02*
G75*
G03*
X11970000Y-6200000I-30000J0D01*
G01*
X11970000Y-6327000D02*
G75*
G03*
X11970000Y-6327000I-30000J0D01*
G01*
X11970000Y-6454000D02*
G75*
G03*
X11970000Y-6454000I-30000J0D01*
G01*
X11970000Y-6581000D02*
G75*
G03*
X11970000Y-6581000I-30000J0D01*
G01*
X11970000Y-6708000D02*
G75*
G03*
X11970000Y-6708000I-30000J0D01*
G01*
X11970000Y-6835000D02*
G75*
G03*
X11970000Y-6835000I-30000J0D01*
G01*
D11*
X10838619Y-7285476D02*
X10838619Y-7085476D01*
X10886238Y-7085476D01*
X10914810Y-7095000D01*
X10933857Y-7114048D01*
X10943381Y-7133095D01*
X10952905Y-7171190D01*
X10952905Y-7199762D01*
X10943381Y-7237857D01*
X10933857Y-7256905D01*
X10914810Y-7275952D01*
X10886238Y-7285476D01*
X10838619Y-7285476D01*
X11038619Y-7285476D02*
X11038619Y-7152143D01*
X11038619Y-7190238D02*
X11048143Y-7171190D01*
X11057667Y-7161667D01*
X11076714Y-7152143D01*
X11095762Y-7152143D01*
X11162429Y-7285476D02*
X11162429Y-7152143D01*
X11162429Y-7085476D02*
X11152905Y-7095000D01*
X11162429Y-7104524D01*
X11171952Y-7095000D01*
X11162429Y-7085476D01*
X11162429Y-7104524D01*
X11286238Y-7285476D02*
X11267190Y-7275952D01*
X11257667Y-7256905D01*
X11257667Y-7085476D01*
X11391000Y-7285476D02*
X11371952Y-7275952D01*
X11362428Y-7256905D01*
X11362428Y-7085476D01*
X11619571Y-7285476D02*
X11619571Y-7085476D01*
X11686238Y-7228333D01*
X11752905Y-7085476D01*
X11752905Y-7285476D01*
X11933857Y-7285476D02*
X11933857Y-7180714D01*
X11924333Y-7161667D01*
X11905286Y-7152143D01*
X11867190Y-7152143D01*
X11848143Y-7161667D01*
X11933857Y-7275952D02*
X11914809Y-7285476D01*
X11867190Y-7285476D01*
X11848143Y-7275952D01*
X11838619Y-7256905D01*
X11838619Y-7237857D01*
X11848143Y-7218809D01*
X11867190Y-7209286D01*
X11914809Y-7209286D01*
X11933857Y-7199762D01*
X12029095Y-7152143D02*
X12029095Y-7352143D01*
X12029095Y-7161667D02*
X12048143Y-7152143D01*
X12086238Y-7152143D01*
X12105286Y-7161667D01*
X12114809Y-7171190D01*
X12124333Y-7190238D01*
X12124333Y-7247381D01*
X12114809Y-7266428D01*
X12105286Y-7275952D01*
X12086238Y-7285476D01*
X12048143Y-7285476D01*
X12029095Y-7275952D01*
X12210048Y-7266428D02*
X12219571Y-7275952D01*
X12210048Y-7285476D01*
X12200524Y-7275952D01*
X12210048Y-7266428D01*
X12210048Y-7285476D01*
X12210048Y-7161667D02*
X12219571Y-7171190D01*
X12210048Y-7180714D01*
X12200524Y-7171190D01*
X12210048Y-7161667D01*
X12210048Y-7180714D01*
D12*
X10561000Y-7605000D02*
X10581000Y-7625000D01*
X10581000Y-7605000D02*
X10561000Y-7625000D01*
D11*
X10876714Y-7505476D02*
X10895762Y-7505476D01*
X10914810Y-7515000D01*
X10924333Y-7524524D01*
X10933857Y-7543571D01*
X10943381Y-7581667D01*
X10943381Y-7629286D01*
X10933857Y-7667381D01*
X10924333Y-7686428D01*
X10914810Y-7695952D01*
X10895762Y-7705476D01*
X10876714Y-7705476D01*
X10857667Y-7695952D01*
X10848143Y-7686428D01*
X10838619Y-7667381D01*
X10829095Y-7629286D01*
X10829095Y-7581667D01*
X10838619Y-7543571D01*
X10848143Y-7524524D01*
X10857667Y-7515000D01*
X10876714Y-7505476D01*
X11029095Y-7686428D02*
X11038619Y-7695952D01*
X11029095Y-7705476D01*
X11019571Y-7695952D01*
X11029095Y-7686428D01*
X11029095Y-7705476D01*
X11114810Y-7524524D02*
X11124333Y-7515000D01*
X11143381Y-7505476D01*
X11191000Y-7505476D01*
X11210048Y-7515000D01*
X11219571Y-7524524D01*
X11229095Y-7543571D01*
X11229095Y-7562619D01*
X11219571Y-7591190D01*
X11105286Y-7705476D01*
X11229095Y-7705476D01*
X11352905Y-7505476D02*
X11371952Y-7505476D01*
X11391000Y-7515000D01*
X11400524Y-7524524D01*
X11410048Y-7543571D01*
X11419571Y-7581667D01*
X11419571Y-7629286D01*
X11410048Y-7667381D01*
X11400524Y-7686428D01*
X11391000Y-7695952D01*
X11371952Y-7705476D01*
X11352905Y-7705476D01*
X11333857Y-7695952D01*
X11324333Y-7686428D01*
X11314809Y-7667381D01*
X11305286Y-7629286D01*
X11305286Y-7581667D01*
X11314809Y-7543571D01*
X11324333Y-7524524D01*
X11333857Y-7515000D01*
X11352905Y-7505476D01*
X11543381Y-7505476D02*
X11562428Y-7505476D01*
X11581476Y-7515000D01*
X11591000Y-7524524D01*
X11600524Y-7543571D01*
X11610048Y-7581667D01*
X11610048Y-7629286D01*
X11600524Y-7667381D01*
X11591000Y-7686428D01*
X11581476Y-7695952D01*
X11562428Y-7705476D01*
X11543381Y-7705476D01*
X11524333Y-7695952D01*
X11514809Y-7686428D01*
X11505286Y-7667381D01*
X11495762Y-7629286D01*
X11495762Y-7581667D01*
X11505286Y-7543571D01*
X11514809Y-7524524D01*
X11524333Y-7515000D01*
X11543381Y-7505476D01*
X11695762Y-7705476D02*
X11695762Y-7572143D01*
X11695762Y-7591190D02*
X11705286Y-7581667D01*
X11724333Y-7572143D01*
X11752905Y-7572143D01*
X11771952Y-7581667D01*
X11781476Y-7600714D01*
X11781476Y-7705476D01*
X11781476Y-7600714D02*
X11791000Y-7581667D01*
X11810048Y-7572143D01*
X11838619Y-7572143D01*
X11857667Y-7581667D01*
X11867190Y-7600714D01*
X11867190Y-7705476D01*
X11962428Y-7705476D02*
X11962428Y-7572143D01*
X11962428Y-7591190D02*
X11971952Y-7581667D01*
X11991000Y-7572143D01*
X12019571Y-7572143D01*
X12038619Y-7581667D01*
X12048143Y-7600714D01*
X12048143Y-7705476D01*
X12048143Y-7600714D02*
X12057667Y-7581667D01*
X12076714Y-7572143D01*
X12105286Y-7572143D01*
X12124333Y-7581667D01*
X12133857Y-7600714D01*
X12133857Y-7705476D01*
X12524333Y-7495952D02*
X12352905Y-7753095D01*
X12781476Y-7505476D02*
X12800524Y-7505476D01*
X12819571Y-7515000D01*
X12829095Y-7524524D01*
X12838619Y-7543571D01*
X12848143Y-7581667D01*
X12848143Y-7629286D01*
X12838619Y-7667381D01*
X12829095Y-7686428D01*
X12819571Y-7695952D01*
X12800524Y-7705476D01*
X12781476Y-7705476D01*
X12762428Y-7695952D01*
X12752905Y-7686428D01*
X12743381Y-7667381D01*
X12733857Y-7629286D01*
X12733857Y-7581667D01*
X12743381Y-7543571D01*
X12752905Y-7524524D01*
X12762428Y-7515000D01*
X12781476Y-7505476D01*
X12933857Y-7686428D02*
X12943381Y-7695952D01*
X12933857Y-7705476D01*
X12924333Y-7695952D01*
X12933857Y-7686428D01*
X12933857Y-7705476D01*
X13067190Y-7505476D02*
X13086238Y-7505476D01*
X13105286Y-7515000D01*
X13114809Y-7524524D01*
X13124333Y-7543571D01*
X13133857Y-7581667D01*
X13133857Y-7629286D01*
X13124333Y-7667381D01*
X13114809Y-7686428D01*
X13105286Y-7695952D01*
X13086238Y-7705476D01*
X13067190Y-7705476D01*
X13048143Y-7695952D01*
X13038619Y-7686428D01*
X13029095Y-7667381D01*
X13019571Y-7629286D01*
X13019571Y-7581667D01*
X13029095Y-7543571D01*
X13038619Y-7524524D01*
X13048143Y-7515000D01*
X13067190Y-7505476D01*
X13257667Y-7505476D02*
X13276714Y-7505476D01*
X13295762Y-7515000D01*
X13305286Y-7524524D01*
X13314809Y-7543571D01*
X13324333Y-7581667D01*
X13324333Y-7629286D01*
X13314809Y-7667381D01*
X13305286Y-7686428D01*
X13295762Y-7695952D01*
X13276714Y-7705476D01*
X13257667Y-7705476D01*
X13238619Y-7695952D01*
X13229095Y-7686428D01*
X13219571Y-7667381D01*
X13210048Y-7629286D01*
X13210048Y-7581667D01*
X13219571Y-7543571D01*
X13229095Y-7524524D01*
X13238619Y-7515000D01*
X13257667Y-7505476D01*
X13391000Y-7505476D02*
X13524333Y-7505476D01*
X13438619Y-7705476D01*
X13610048Y-7705476D02*
X13648143Y-7705476D01*
X13667190Y-7695952D01*
X13676714Y-7686428D01*
X13695762Y-7657857D01*
X13705286Y-7619762D01*
X13705286Y-7543571D01*
X13695762Y-7524524D01*
X13686238Y-7515000D01*
X13667190Y-7505476D01*
X13629095Y-7505476D01*
X13610048Y-7515000D01*
X13600524Y-7524524D01*
X13591000Y-7543571D01*
X13591000Y-7591190D01*
X13600524Y-7610238D01*
X13610048Y-7619762D01*
X13629095Y-7629286D01*
X13667190Y-7629286D01*
X13686238Y-7619762D01*
X13695762Y-7610238D01*
X13705286Y-7591190D01*
X13781476Y-7505476D02*
X13781476Y-7543571D01*
X13857667Y-7505476D02*
X13857667Y-7543571D01*
X14152905Y-7781667D02*
X14143381Y-7772143D01*
X14124333Y-7743571D01*
X14114809Y-7724524D01*
X14105286Y-7695952D01*
X14095762Y-7648333D01*
X14095762Y-7610238D01*
X14105286Y-7562619D01*
X14114809Y-7534048D01*
X14124333Y-7515000D01*
X14143381Y-7486428D01*
X14152905Y-7476905D01*
X14210048Y-7505476D02*
X14333857Y-7505476D01*
X14267190Y-7581667D01*
X14295762Y-7581667D01*
X14314809Y-7591190D01*
X14324333Y-7600714D01*
X14333857Y-7619762D01*
X14333857Y-7667381D01*
X14324333Y-7686428D01*
X14314809Y-7695952D01*
X14295762Y-7705476D01*
X14238619Y-7705476D01*
X14219571Y-7695952D01*
X14210048Y-7686428D01*
X14505286Y-7505476D02*
X14467190Y-7505476D01*
X14448143Y-7515000D01*
X14438619Y-7524524D01*
X14419571Y-7553095D01*
X14410048Y-7591190D01*
X14410048Y-7667381D01*
X14419571Y-7686428D01*
X14429095Y-7695952D01*
X14448143Y-7705476D01*
X14486238Y-7705476D01*
X14505286Y-7695952D01*
X14514809Y-7686428D01*
X14524333Y-7667381D01*
X14524333Y-7619762D01*
X14514809Y-7600714D01*
X14505286Y-7591190D01*
X14486238Y-7581667D01*
X14448143Y-7581667D01*
X14429095Y-7591190D01*
X14419571Y-7600714D01*
X14410048Y-7619762D01*
X14762428Y-7705476D02*
X14762428Y-7505476D01*
X14848143Y-7705476D02*
X14848143Y-7600714D01*
X14838619Y-7581667D01*
X14819571Y-7572143D01*
X14791000Y-7572143D01*
X14771952Y-7581667D01*
X14762428Y-7591190D01*
X14971952Y-7705476D02*
X14952905Y-7695952D01*
X14943381Y-7686428D01*
X14933857Y-7667381D01*
X14933857Y-7610238D01*
X14943381Y-7591190D01*
X14952905Y-7581667D01*
X14971952Y-7572143D01*
X15000524Y-7572143D01*
X15019571Y-7581667D01*
X15029095Y-7591190D01*
X15038619Y-7610238D01*
X15038619Y-7667381D01*
X15029095Y-7686428D01*
X15019571Y-7695952D01*
X15000524Y-7705476D01*
X14971952Y-7705476D01*
X15152905Y-7705476D02*
X15133857Y-7695952D01*
X15124333Y-7676905D01*
X15124333Y-7505476D01*
X15305286Y-7695952D02*
X15286238Y-7705476D01*
X15248143Y-7705476D01*
X15229095Y-7695952D01*
X15219571Y-7676905D01*
X15219571Y-7600714D01*
X15229095Y-7581667D01*
X15248143Y-7572143D01*
X15286238Y-7572143D01*
X15305286Y-7581667D01*
X15314809Y-7600714D01*
X15314809Y-7619762D01*
X15219571Y-7638809D01*
X15391000Y-7695952D02*
X15410048Y-7705476D01*
X15448143Y-7705476D01*
X15467190Y-7695952D01*
X15476714Y-7676905D01*
X15476714Y-7667381D01*
X15467190Y-7648333D01*
X15448143Y-7638809D01*
X15419571Y-7638809D01*
X15400524Y-7629286D01*
X15391000Y-7610238D01*
X15391000Y-7600714D01*
X15400524Y-7581667D01*
X15419571Y-7572143D01*
X15448143Y-7572143D01*
X15467190Y-7581667D01*
X15543381Y-7781667D02*
X15552905Y-7772143D01*
X15571952Y-7743571D01*
X15581476Y-7724524D01*
X15591000Y-7695952D01*
X15600524Y-7648333D01*
X15600524Y-7610238D01*
X15591000Y-7562619D01*
X15581476Y-7534048D01*
X15571952Y-7515000D01*
X15552905Y-7486428D01*
X15543381Y-7476905D01*
D13*
X10581000Y-7879000D02*
G75*
G03*
X10581000Y-7879000I-30000J0D01*
G01*
D11*
X10876714Y-7769476D02*
X10895762Y-7769476D01*
X10914810Y-7779000D01*
X10924333Y-7788524D01*
X10933857Y-7807571D01*
X10943381Y-7845667D01*
X10943381Y-7893286D01*
X10933857Y-7931381D01*
X10924333Y-7950428D01*
X10914810Y-7959952D01*
X10895762Y-7969476D01*
X10876714Y-7969476D01*
X10857667Y-7959952D01*
X10848143Y-7950428D01*
X10838619Y-7931381D01*
X10829095Y-7893286D01*
X10829095Y-7845667D01*
X10838619Y-7807571D01*
X10848143Y-7788524D01*
X10857667Y-7779000D01*
X10876714Y-7769476D01*
X11029095Y-7950428D02*
X11038619Y-7959952D01*
X11029095Y-7969476D01*
X11019571Y-7959952D01*
X11029095Y-7950428D01*
X11029095Y-7969476D01*
X11210048Y-7769476D02*
X11171952Y-7769476D01*
X11152905Y-7779000D01*
X11143381Y-7788524D01*
X11124333Y-7817095D01*
X11114810Y-7855190D01*
X11114810Y-7931381D01*
X11124333Y-7950428D01*
X11133857Y-7959952D01*
X11152905Y-7969476D01*
X11191000Y-7969476D01*
X11210048Y-7959952D01*
X11219571Y-7950428D01*
X11229095Y-7931381D01*
X11229095Y-7883762D01*
X11219571Y-7864714D01*
X11210048Y-7855190D01*
X11191000Y-7845667D01*
X11152905Y-7845667D01*
X11133857Y-7855190D01*
X11124333Y-7864714D01*
X11114810Y-7883762D01*
X11352905Y-7769476D02*
X11371952Y-7769476D01*
X11391000Y-7779000D01*
X11400524Y-7788524D01*
X11410048Y-7807571D01*
X11419571Y-7845667D01*
X11419571Y-7893286D01*
X11410048Y-7931381D01*
X11400524Y-7950428D01*
X11391000Y-7959952D01*
X11371952Y-7969476D01*
X11352905Y-7969476D01*
X11333857Y-7959952D01*
X11324333Y-7950428D01*
X11314809Y-7931381D01*
X11305286Y-7893286D01*
X11305286Y-7845667D01*
X11314809Y-7807571D01*
X11324333Y-7788524D01*
X11333857Y-7779000D01*
X11352905Y-7769476D01*
X11543381Y-7769476D02*
X11562428Y-7769476D01*
X11581476Y-7779000D01*
X11591000Y-7788524D01*
X11600524Y-7807571D01*
X11610048Y-7845667D01*
X11610048Y-7893286D01*
X11600524Y-7931381D01*
X11591000Y-7950428D01*
X11581476Y-7959952D01*
X11562428Y-7969476D01*
X11543381Y-7969476D01*
X11524333Y-7959952D01*
X11514809Y-7950428D01*
X11505286Y-7931381D01*
X11495762Y-7893286D01*
X11495762Y-7845667D01*
X11505286Y-7807571D01*
X11514809Y-7788524D01*
X11524333Y-7779000D01*
X11543381Y-7769476D01*
X11695762Y-7969476D02*
X11695762Y-7836143D01*
X11695762Y-7855190D02*
X11705286Y-7845667D01*
X11724333Y-7836143D01*
X11752905Y-7836143D01*
X11771952Y-7845667D01*
X11781476Y-7864714D01*
X11781476Y-7969476D01*
X11781476Y-7864714D02*
X11791000Y-7845667D01*
X11810048Y-7836143D01*
X11838619Y-7836143D01*
X11857667Y-7845667D01*
X11867190Y-7864714D01*
X11867190Y-7969476D01*
X11962428Y-7969476D02*
X11962428Y-7836143D01*
X11962428Y-7855190D02*
X11971952Y-7845667D01*
X11991000Y-7836143D01*
X12019571Y-7836143D01*
X12038619Y-7845667D01*
X12048143Y-7864714D01*
X12048143Y-7969476D01*
X12048143Y-7864714D02*
X12057667Y-7845667D01*
X12076714Y-7836143D01*
X12105286Y-7836143D01*
X12124333Y-7845667D01*
X12133857Y-7864714D01*
X12133857Y-7969476D01*
X12524333Y-7759952D02*
X12352905Y-8017095D01*
X12781476Y-7769476D02*
X12800524Y-7769476D01*
X12819571Y-7779000D01*
X12829095Y-7788524D01*
X12838619Y-7807571D01*
X12848143Y-7845667D01*
X12848143Y-7893286D01*
X12838619Y-7931381D01*
X12829095Y-7950428D01*
X12819571Y-7959952D01*
X12800524Y-7969476D01*
X12781476Y-7969476D01*
X12762428Y-7959952D01*
X12752905Y-7950428D01*
X12743381Y-7931381D01*
X12733857Y-7893286D01*
X12733857Y-7845667D01*
X12743381Y-7807571D01*
X12752905Y-7788524D01*
X12762428Y-7779000D01*
X12781476Y-7769476D01*
X12933857Y-7950428D02*
X12943381Y-7959952D01*
X12933857Y-7969476D01*
X12924333Y-7959952D01*
X12933857Y-7950428D01*
X12933857Y-7969476D01*
X13067190Y-7769476D02*
X13086238Y-7769476D01*
X13105286Y-7779000D01*
X13114809Y-7788524D01*
X13124333Y-7807571D01*
X13133857Y-7845667D01*
X13133857Y-7893286D01*
X13124333Y-7931381D01*
X13114809Y-7950428D01*
X13105286Y-7959952D01*
X13086238Y-7969476D01*
X13067190Y-7969476D01*
X13048143Y-7959952D01*
X13038619Y-7950428D01*
X13029095Y-7931381D01*
X13019571Y-7893286D01*
X13019571Y-7845667D01*
X13029095Y-7807571D01*
X13038619Y-7788524D01*
X13048143Y-7779000D01*
X13067190Y-7769476D01*
X13210048Y-7788524D02*
X13219571Y-7779000D01*
X13238619Y-7769476D01*
X13286238Y-7769476D01*
X13305286Y-7779000D01*
X13314809Y-7788524D01*
X13324333Y-7807571D01*
X13324333Y-7826619D01*
X13314809Y-7855190D01*
X13200524Y-7969476D01*
X13324333Y-7969476D01*
X13391000Y-7769476D02*
X13514809Y-7769476D01*
X13448143Y-7845667D01*
X13476714Y-7845667D01*
X13495762Y-7855190D01*
X13505286Y-7864714D01*
X13514809Y-7883762D01*
X13514809Y-7931381D01*
X13505286Y-7950428D01*
X13495762Y-7959952D01*
X13476714Y-7969476D01*
X13419571Y-7969476D01*
X13400524Y-7959952D01*
X13391000Y-7950428D01*
X13686238Y-7769476D02*
X13648143Y-7769476D01*
X13629095Y-7779000D01*
X13619571Y-7788524D01*
X13600524Y-7817095D01*
X13591000Y-7855190D01*
X13591000Y-7931381D01*
X13600524Y-7950428D01*
X13610048Y-7959952D01*
X13629095Y-7969476D01*
X13667190Y-7969476D01*
X13686238Y-7959952D01*
X13695762Y-7950428D01*
X13705286Y-7931381D01*
X13705286Y-7883762D01*
X13695762Y-7864714D01*
X13686238Y-7855190D01*
X13667190Y-7845667D01*
X13629095Y-7845667D01*
X13610048Y-7855190D01*
X13600524Y-7864714D01*
X13591000Y-7883762D01*
X13781476Y-7769476D02*
X13781476Y-7807571D01*
X13857667Y-7769476D02*
X13857667Y-7807571D01*
X14152905Y-8045667D02*
X14143381Y-8036143D01*
X14124333Y-8007571D01*
X14114809Y-7988524D01*
X14105286Y-7959952D01*
X14095762Y-7912333D01*
X14095762Y-7874238D01*
X14105286Y-7826619D01*
X14114809Y-7798048D01*
X14124333Y-7779000D01*
X14143381Y-7750428D01*
X14152905Y-7740905D01*
X14210048Y-7769476D02*
X14333857Y-7769476D01*
X14267190Y-7845667D01*
X14295762Y-7845667D01*
X14314809Y-7855190D01*
X14324333Y-7864714D01*
X14333857Y-7883762D01*
X14333857Y-7931381D01*
X14324333Y-7950428D01*
X14314809Y-7959952D01*
X14295762Y-7969476D01*
X14238619Y-7969476D01*
X14219571Y-7959952D01*
X14210048Y-7950428D01*
X14410048Y-7788524D02*
X14419571Y-7779000D01*
X14438619Y-7769476D01*
X14486238Y-7769476D01*
X14505286Y-7779000D01*
X14514809Y-7788524D01*
X14524333Y-7807571D01*
X14524333Y-7826619D01*
X14514809Y-7855190D01*
X14400524Y-7969476D01*
X14524333Y-7969476D01*
X14762428Y-7969476D02*
X14762428Y-7769476D01*
X14848143Y-7969476D02*
X14848143Y-7864714D01*
X14838619Y-7845667D01*
X14819571Y-7836143D01*
X14791000Y-7836143D01*
X14771952Y-7845667D01*
X14762428Y-7855190D01*
X14971952Y-7969476D02*
X14952905Y-7959952D01*
X14943381Y-7950428D01*
X14933857Y-7931381D01*
X14933857Y-7874238D01*
X14943381Y-7855190D01*
X14952905Y-7845667D01*
X14971952Y-7836143D01*
X15000524Y-7836143D01*
X15019571Y-7845667D01*
X15029095Y-7855190D01*
X15038619Y-7874238D01*
X15038619Y-7931381D01*
X15029095Y-7950428D01*
X15019571Y-7959952D01*
X15000524Y-7969476D01*
X14971952Y-7969476D01*
X15152905Y-7969476D02*
X15133857Y-7959952D01*
X15124333Y-7940905D01*
X15124333Y-7769476D01*
X15305286Y-7959952D02*
X15286238Y-7969476D01*
X15248143Y-7969476D01*
X15229095Y-7959952D01*
X15219571Y-7940905D01*
X15219571Y-7864714D01*
X15229095Y-7845667D01*
X15248143Y-7836143D01*
X15286238Y-7836143D01*
X15305286Y-7845667D01*
X15314809Y-7864714D01*
X15314809Y-7883762D01*
X15219571Y-7902809D01*
X15391000Y-7959952D02*
X15410048Y-7969476D01*
X15448143Y-7969476D01*
X15467190Y-7959952D01*
X15476714Y-7940905D01*
X15476714Y-7931381D01*
X15467190Y-7912333D01*
X15448143Y-7902809D01*
X15419571Y-7902809D01*
X15400524Y-7893286D01*
X15391000Y-7874238D01*
X15391000Y-7864714D01*
X15400524Y-7845667D01*
X15419571Y-7836143D01*
X15448143Y-7836143D01*
X15467190Y-7845667D01*
X15543381Y-8045667D02*
X15552905Y-8036143D01*
X15571952Y-8007571D01*
X15581476Y-7988524D01*
X15591000Y-7959952D01*
X15600524Y-7912333D01*
X15600524Y-7874238D01*
X15591000Y-7826619D01*
X15581476Y-7798048D01*
X15571952Y-7779000D01*
X15552905Y-7750428D01*
X15543381Y-7740905D01*
M02*
