M48
; DRILL file {KiCad (6.0.1-0)} date Monday, March 14, 2022 at 11:45:22 AM
; FORMAT={-:-/ absolute / inch / decimal}
; #@! TF.CreationDate,2022-03-14T11:45:22-04:00
; #@! TF.GenerationSoftware,Kicad,Pcbnew,(6.0.1-0)
; #@! TF.FileFunction,Plated,1,2,PTH
FMAT,2
INCH
; #@! TA.AperFunction,Plated,PTH,ViaDrill
T1C0.0079
; #@! TA.AperFunction,Plated,PTH,ViaDrill
T2C0.0236
%
G90
G05
T1
X4.1988Y-2.314
X4.2195Y-2.2618
X4.247Y-2.2913
X4.247Y-2.3406
X4.2667Y-2.2411
X4.2667Y-2.3917
X4.2864Y-2.1919
X4.2864Y-2.4409
X4.3051Y-2.1407
X4.3061Y-2.4911
X4.3258Y-2.1909
X4.3258Y-2.5413
X4.3455Y-2.2411
X4.3455Y-2.5915
X4.3652Y-2.3909
X4.3652Y-2.6417
X4.3724Y-1.8689
X4.3846Y-2.2909
X4.3848Y-2.6417
X4.4142Y-2.6685
X4.4634Y-2.4409
X4.4636Y-2.6142
X4.4833Y-2.0906
X4.4833Y-2.5906
X4.5028Y-2.1409
X4.503Y-2.5404
X4.5224Y-2.0909
X4.5226Y-2.4902
X4.5413Y-2.0413
X4.561Y-2.3406
X4.5618Y-1.9909
X4.5815Y-2.0409
X4.5817Y-2.314
X4.6012Y-2.013
X4.6209Y-2.2618
X4.6211Y-1.9419
T2
X4.1673Y-1.9409
X4.1673Y-1.9909
X4.1673Y-2.0409
X4.1673Y-2.0909
X4.1673Y-2.1409
X4.1673Y-2.1909
X4.1673Y-2.2409
X4.1673Y-2.2909
X4.1673Y-2.3409
X4.1673Y-2.3909
X4.1673Y-2.4409
X4.1673Y-2.4909
X4.1673Y-2.5409
X4.1673Y-2.5909
X4.1673Y-2.6409
X4.1673Y-2.6909
X4.7008Y-1.9409
X4.7008Y-1.9909
X4.7008Y-2.0409
X4.7008Y-2.0909
X4.7008Y-2.1409
X4.7008Y-2.1909
X4.7008Y-2.2409
X4.7008Y-2.2909
X4.7008Y-2.3409
X4.7008Y-2.3909
X4.7008Y-2.4409
X4.7008Y-2.4909
X4.7008Y-2.5409
X4.7008Y-2.5909
X4.7008Y-2.6409
X4.7008Y-2.6909
T0
M30
