G04 #@! TF.GenerationSoftware,KiCad,Pcbnew,(6.0.1-0)*
G04 #@! TF.CreationDate,2022-03-15T16:22:54-04:00*
G04 #@! TF.ProjectId,MBC1-TSOP40,4d424331-2d54-4534-9f50-34302e6b6963,rev?*
G04 #@! TF.SameCoordinates,Original*
G04 #@! TF.FileFunction,Soldermask,Bot*
G04 #@! TF.FilePolarity,Negative*
%FSLAX46Y46*%
G04 Gerber Fmt 4.6, Leading zero omitted, Abs format (unit mm)*
G04 Created by KiCad (PCBNEW (6.0.1-0)) date 2022-03-15 16:22:54*
%MOMM*%
%LPD*%
G01*
G04 APERTURE LIST*
%ADD10C,0.800000*%
%ADD11C,0.400000*%
G04 APERTURE END LIST*
D10*
X119400000Y-49300000D03*
X119400000Y-50570000D03*
D11*
X116370000Y-51840000D03*
D10*
X119400000Y-51840000D03*
D11*
X114870000Y-53110000D03*
D10*
X119400000Y-53110000D03*
D11*
X114370000Y-54380000D03*
D10*
X119400000Y-54380000D03*
D11*
X109875000Y-55650000D03*
D10*
X119400000Y-55650000D03*
D11*
X110375000Y-56925000D03*
D10*
X119400000Y-56920000D03*
D11*
X111370000Y-58190000D03*
D10*
X119400000Y-58190000D03*
D11*
X115850000Y-59450000D03*
D10*
X119400000Y-59460000D03*
X119400000Y-60730000D03*
D11*
X110875000Y-60730000D03*
D10*
X119400000Y-62000000D03*
D11*
X113370000Y-62000000D03*
X114875000Y-63250000D03*
D10*
X119400000Y-63270000D03*
D11*
X114375000Y-64525000D03*
D10*
X119400000Y-64540000D03*
D11*
X113875000Y-65800000D03*
D10*
X119400000Y-65810000D03*
X119400000Y-67080000D03*
D11*
X113375000Y-66400000D03*
X111690000Y-66400000D03*
D10*
X119400000Y-68350000D03*
D11*
X112120000Y-67780000D03*
D10*
X105850000Y-68350000D03*
X105850000Y-67080000D03*
D11*
X110875000Y-67100000D03*
X110375000Y-65825000D03*
D10*
X105850000Y-65810000D03*
X105850000Y-64540000D03*
D11*
X109875000Y-64550000D03*
D10*
X105850000Y-63270000D03*
D11*
X109375000Y-63275000D03*
X108875000Y-62000000D03*
D10*
X105850000Y-62000000D03*
X105850000Y-60730000D03*
D11*
X108375000Y-60750000D03*
D10*
X105850000Y-59460000D03*
D11*
X107875000Y-59450000D03*
X107875000Y-58200000D03*
D10*
X105850000Y-58190000D03*
X105850000Y-56920000D03*
D11*
X108375000Y-56925000D03*
D10*
X105850000Y-55650000D03*
D11*
X108875000Y-55675000D03*
D10*
X105850000Y-54380000D03*
D11*
X109350000Y-54375000D03*
D10*
X105850000Y-53110000D03*
D11*
X113875000Y-53100000D03*
X115370000Y-51850000D03*
D10*
X105850000Y-51840000D03*
X105850000Y-50570000D03*
D11*
X115870000Y-50570000D03*
X117375000Y-49325000D03*
D10*
X105850000Y-49300000D03*
D11*
X106650000Y-58775000D03*
X116375000Y-58775000D03*
X117370000Y-57450000D03*
X107175000Y-57450000D03*
X111060000Y-47470000D03*
X116870000Y-51130000D03*
M02*
