%FSLAX45Y45*%
G04 Gerber Fmt 4.5, Leading zero omitted, Abs format (unit mm)*
G04 Created by KiCad (PCBNEW (6.0.1-0)) date 2022-03-15 16:22:52*
%MOMM*%
%LPD*%
G01*
G04 APERTURE LIST*
%TA.AperFunction,Profile*%
%ADD10C,0.100000*%
%TD*%
%ADD11C,0.200000*%
%ADD12C,0.030000*%
%ADD13C,0.060000*%
G04 APERTURE END LIST*
D10*
X10586000Y-4639000D02*
X10586000Y-6970000D01*
X11940000Y-4639000D02*
X11940000Y-6970000D01*
X10586000Y-6970000D02*
X11940000Y-6970000D01*
X10586000Y-4639000D02*
X11940000Y-4639000D01*
D11*
D12*
X10650000Y-5862500D02*
X10680000Y-5892500D01*
X10680000Y-5862500D02*
X10650000Y-5892500D01*
X10702500Y-5730000D02*
X10732500Y-5760000D01*
X10732500Y-5730000D02*
X10702500Y-5760000D01*
X10772500Y-5805000D02*
X10802500Y-5835000D01*
X10802500Y-5805000D02*
X10772500Y-5835000D01*
X10772500Y-5930000D02*
X10802500Y-5960000D01*
X10802500Y-5930000D02*
X10772500Y-5960000D01*
X10822500Y-5677500D02*
X10852500Y-5707500D01*
X10852500Y-5677500D02*
X10822500Y-5707500D01*
X10822500Y-6060000D02*
X10852500Y-6090000D01*
X10852500Y-6060000D02*
X10822500Y-6090000D01*
X10872500Y-5552500D02*
X10902500Y-5582500D01*
X10902500Y-5552500D02*
X10872500Y-5582500D01*
X10872500Y-6185000D02*
X10902500Y-6215000D01*
X10902500Y-6185000D02*
X10872500Y-6215000D01*
X10920000Y-5422500D02*
X10950000Y-5452500D01*
X10950000Y-5422500D02*
X10920000Y-5452500D01*
X10922500Y-6312500D02*
X10952500Y-6342500D01*
X10952500Y-6312500D02*
X10922500Y-6342500D01*
X10972500Y-5550000D02*
X11002500Y-5580000D01*
X11002500Y-5550000D02*
X10972500Y-5580000D01*
X10972500Y-6440000D02*
X11002500Y-6470000D01*
X11002500Y-6440000D02*
X10972500Y-6470000D01*
X11022500Y-5677500D02*
X11052500Y-5707500D01*
X11052500Y-5677500D02*
X11022500Y-5707500D01*
X11022500Y-6567500D02*
X11052500Y-6597500D01*
X11052500Y-6567500D02*
X11022500Y-6597500D01*
X11072500Y-6058000D02*
X11102500Y-6088000D01*
X11102500Y-6058000D02*
X11072500Y-6088000D01*
X11072500Y-6695000D02*
X11102500Y-6725000D01*
X11102500Y-6695000D02*
X11072500Y-6725000D01*
X11091000Y-4732000D02*
X11121000Y-4762000D01*
X11121000Y-4732000D02*
X11091000Y-4762000D01*
X11122000Y-5804000D02*
X11152000Y-5834000D01*
X11152000Y-5804000D02*
X11122000Y-5834000D01*
X11154000Y-6625000D02*
X11184000Y-6655000D01*
X11184000Y-6625000D02*
X11154000Y-6655000D01*
X11197000Y-6763000D02*
X11227000Y-6793000D01*
X11227000Y-6763000D02*
X11197000Y-6793000D01*
X11322000Y-6185000D02*
X11352000Y-6215000D01*
X11352000Y-6185000D02*
X11322000Y-6215000D01*
X11322500Y-6625000D02*
X11352500Y-6655000D01*
X11352500Y-6625000D02*
X11322500Y-6655000D01*
X11372500Y-5295000D02*
X11402500Y-5325000D01*
X11402500Y-5295000D02*
X11372500Y-5325000D01*
X11372500Y-6565000D02*
X11402500Y-6595000D01*
X11402500Y-6565000D02*
X11372500Y-6595000D01*
X11422000Y-5423000D02*
X11452000Y-5453000D01*
X11452000Y-5423000D02*
X11422000Y-5453000D01*
X11422500Y-6437500D02*
X11452500Y-6467500D01*
X11452500Y-6437500D02*
X11422500Y-6467500D01*
X11472000Y-5296000D02*
X11502000Y-5326000D01*
X11502000Y-5296000D02*
X11472000Y-5326000D01*
X11472500Y-6310000D02*
X11502500Y-6340000D01*
X11502500Y-6310000D02*
X11472500Y-6340000D01*
X11522000Y-5170000D02*
X11552000Y-5200000D01*
X11552000Y-5170000D02*
X11522000Y-5200000D01*
X11570000Y-5930000D02*
X11600000Y-5960000D01*
X11600000Y-5930000D02*
X11570000Y-5960000D01*
X11572000Y-5042000D02*
X11602000Y-5072000D01*
X11602000Y-5042000D02*
X11572000Y-5072000D01*
X11622000Y-5169000D02*
X11652000Y-5199000D01*
X11652000Y-5169000D02*
X11622000Y-5199000D01*
X11622500Y-5862500D02*
X11652500Y-5892500D01*
X11652500Y-5862500D02*
X11622500Y-5892500D01*
X11672000Y-5098000D02*
X11702000Y-5128000D01*
X11702000Y-5098000D02*
X11672000Y-5128000D01*
X11722000Y-5730000D02*
X11752000Y-5760000D01*
X11752000Y-5730000D02*
X11722000Y-5760000D01*
X11722500Y-4917500D02*
X11752500Y-4947500D01*
X11752500Y-4917500D02*
X11722500Y-4947500D01*
D13*
X10615000Y-4930000D02*
G75*
G03*
X10615000Y-4930000I-30000J0D01*
G01*
X10615000Y-5057000D02*
G75*
G03*
X10615000Y-5057000I-30000J0D01*
G01*
X10615000Y-5184000D02*
G75*
G03*
X10615000Y-5184000I-30000J0D01*
G01*
X10615000Y-5311000D02*
G75*
G03*
X10615000Y-5311000I-30000J0D01*
G01*
X10615000Y-5438000D02*
G75*
G03*
X10615000Y-5438000I-30000J0D01*
G01*
X10615000Y-5565000D02*
G75*
G03*
X10615000Y-5565000I-30000J0D01*
G01*
X10615000Y-5692000D02*
G75*
G03*
X10615000Y-5692000I-30000J0D01*
G01*
X10615000Y-5819000D02*
G75*
G03*
X10615000Y-5819000I-30000J0D01*
G01*
X10615000Y-5946000D02*
G75*
G03*
X10615000Y-5946000I-30000J0D01*
G01*
X10615000Y-6073000D02*
G75*
G03*
X10615000Y-6073000I-30000J0D01*
G01*
X10615000Y-6200000D02*
G75*
G03*
X10615000Y-6200000I-30000J0D01*
G01*
X10615000Y-6327000D02*
G75*
G03*
X10615000Y-6327000I-30000J0D01*
G01*
X10615000Y-6454000D02*
G75*
G03*
X10615000Y-6454000I-30000J0D01*
G01*
X10615000Y-6581000D02*
G75*
G03*
X10615000Y-6581000I-30000J0D01*
G01*
X10615000Y-6708000D02*
G75*
G03*
X10615000Y-6708000I-30000J0D01*
G01*
X10615000Y-6835000D02*
G75*
G03*
X10615000Y-6835000I-30000J0D01*
G01*
X11970000Y-4930000D02*
G75*
G03*
X11970000Y-4930000I-30000J0D01*
G01*
X11970000Y-5057000D02*
G75*
G03*
X11970000Y-5057000I-30000J0D01*
G01*
X11970000Y-5184000D02*
G75*
G03*
X11970000Y-5184000I-30000J0D01*
G01*
X11970000Y-5311000D02*
G75*
G03*
X11970000Y-5311000I-30000J0D01*
G01*
X11970000Y-5438000D02*
G75*
G03*
X11970000Y-5438000I-30000J0D01*
G01*
X11970000Y-5565000D02*
G75*
G03*
X11970000Y-5565000I-30000J0D01*
G01*
X11970000Y-5692000D02*
G75*
G03*
X11970000Y-5692000I-30000J0D01*
G01*
X11970000Y-5819000D02*
G75*
G03*
X11970000Y-5819000I-30000J0D01*
G01*
X11970000Y-5946000D02*
G75*
G03*
X11970000Y-5946000I-30000J0D01*
G01*
X11970000Y-6073000D02*
G75*
G03*
X11970000Y-6073000I-30000J0D01*
G01*
X11970000Y-6200000D02*
G75*
G03*
X11970000Y-6200000I-30000J0D01*
G01*
X11970000Y-6327000D02*
G75*
G03*
X11970000Y-6327000I-30000J0D01*
G01*
X11970000Y-6454000D02*
G75*
G03*
X11970000Y-6454000I-30000J0D01*
G01*
X11970000Y-6581000D02*
G75*
G03*
X11970000Y-6581000I-30000J0D01*
G01*
X11970000Y-6708000D02*
G75*
G03*
X11970000Y-6708000I-30000J0D01*
G01*
X11970000Y-6835000D02*
G75*
G03*
X11970000Y-6835000I-30000J0D01*
G01*
D11*
X10838619Y-7285476D02*
X10838619Y-7085476D01*
X10886238Y-7085476D01*
X10914810Y-7095000D01*
X10933857Y-7114048D01*
X10943381Y-7133095D01*
X10952905Y-7171190D01*
X10952905Y-7199762D01*
X10943381Y-7237857D01*
X10933857Y-7256905D01*
X10914810Y-7275952D01*
X10886238Y-7285476D01*
X10838619Y-7285476D01*
X11038619Y-7285476D02*
X11038619Y-7152143D01*
X11038619Y-7190238D02*
X11048143Y-7171190D01*
X11057667Y-7161667D01*
X11076714Y-7152143D01*
X11095762Y-7152143D01*
X11162429Y-7285476D02*
X11162429Y-7152143D01*
X11162429Y-7085476D02*
X11152905Y-7095000D01*
X11162429Y-7104524D01*
X11171952Y-7095000D01*
X11162429Y-7085476D01*
X11162429Y-7104524D01*
X11286238Y-7285476D02*
X11267190Y-7275952D01*
X11257667Y-7256905D01*
X11257667Y-7085476D01*
X11391000Y-7285476D02*
X11371952Y-7275952D01*
X11362428Y-7256905D01*
X11362428Y-7085476D01*
X11619571Y-7285476D02*
X11619571Y-7085476D01*
X11686238Y-7228333D01*
X11752905Y-7085476D01*
X11752905Y-7285476D01*
X11933857Y-7285476D02*
X11933857Y-7180714D01*
X11924333Y-7161667D01*
X11905286Y-7152143D01*
X11867190Y-7152143D01*
X11848143Y-7161667D01*
X11933857Y-7275952D02*
X11914809Y-7285476D01*
X11867190Y-7285476D01*
X11848143Y-7275952D01*
X11838619Y-7256905D01*
X11838619Y-7237857D01*
X11848143Y-7218809D01*
X11867190Y-7209286D01*
X11914809Y-7209286D01*
X11933857Y-7199762D01*
X12029095Y-7152143D02*
X12029095Y-7352143D01*
X12029095Y-7161667D02*
X12048143Y-7152143D01*
X12086238Y-7152143D01*
X12105286Y-7161667D01*
X12114809Y-7171190D01*
X12124333Y-7190238D01*
X12124333Y-7247381D01*
X12114809Y-7266428D01*
X12105286Y-7275952D01*
X12086238Y-7285476D01*
X12048143Y-7285476D01*
X12029095Y-7275952D01*
X12210048Y-7266428D02*
X12219571Y-7275952D01*
X12210048Y-7285476D01*
X12200524Y-7275952D01*
X12210048Y-7266428D01*
X12210048Y-7285476D01*
X12210048Y-7161667D02*
X12219571Y-7171190D01*
X12210048Y-7180714D01*
X12200524Y-7171190D01*
X12210048Y-7161667D01*
X12210048Y-7180714D01*
D12*
X10551000Y-7600000D02*
X10581000Y-7630000D01*
X10581000Y-7600000D02*
X10551000Y-7630000D01*
D11*
X10876714Y-7505476D02*
X10895762Y-7505476D01*
X10914810Y-7515000D01*
X10924333Y-7524524D01*
X10933857Y-7543571D01*
X10943381Y-7581667D01*
X10943381Y-7629286D01*
X10933857Y-7667381D01*
X10924333Y-7686428D01*
X10914810Y-7695952D01*
X10895762Y-7705476D01*
X10876714Y-7705476D01*
X10857667Y-7695952D01*
X10848143Y-7686428D01*
X10838619Y-7667381D01*
X10829095Y-7629286D01*
X10829095Y-7581667D01*
X10838619Y-7543571D01*
X10848143Y-7524524D01*
X10857667Y-7515000D01*
X10876714Y-7505476D01*
X11029095Y-7686428D02*
X11038619Y-7695952D01*
X11029095Y-7705476D01*
X11019571Y-7695952D01*
X11029095Y-7686428D01*
X11029095Y-7705476D01*
X11105286Y-7505476D02*
X11229095Y-7505476D01*
X11162429Y-7581667D01*
X11191000Y-7581667D01*
X11210048Y-7591190D01*
X11219571Y-7600714D01*
X11229095Y-7619762D01*
X11229095Y-7667381D01*
X11219571Y-7686428D01*
X11210048Y-7695952D01*
X11191000Y-7705476D01*
X11133857Y-7705476D01*
X11114810Y-7695952D01*
X11105286Y-7686428D01*
X11352905Y-7505476D02*
X11371952Y-7505476D01*
X11391000Y-7515000D01*
X11400524Y-7524524D01*
X11410048Y-7543571D01*
X11419571Y-7581667D01*
X11419571Y-7629286D01*
X11410048Y-7667381D01*
X11400524Y-7686428D01*
X11391000Y-7695952D01*
X11371952Y-7705476D01*
X11352905Y-7705476D01*
X11333857Y-7695952D01*
X11324333Y-7686428D01*
X11314809Y-7667381D01*
X11305286Y-7629286D01*
X11305286Y-7581667D01*
X11314809Y-7543571D01*
X11324333Y-7524524D01*
X11333857Y-7515000D01*
X11352905Y-7505476D01*
X11543381Y-7505476D02*
X11562428Y-7505476D01*
X11581476Y-7515000D01*
X11591000Y-7524524D01*
X11600524Y-7543571D01*
X11610048Y-7581667D01*
X11610048Y-7629286D01*
X11600524Y-7667381D01*
X11591000Y-7686428D01*
X11581476Y-7695952D01*
X11562428Y-7705476D01*
X11543381Y-7705476D01*
X11524333Y-7695952D01*
X11514809Y-7686428D01*
X11505286Y-7667381D01*
X11495762Y-7629286D01*
X11495762Y-7581667D01*
X11505286Y-7543571D01*
X11514809Y-7524524D01*
X11524333Y-7515000D01*
X11543381Y-7505476D01*
X11695762Y-7705476D02*
X11695762Y-7572143D01*
X11695762Y-7591190D02*
X11705286Y-7581667D01*
X11724333Y-7572143D01*
X11752905Y-7572143D01*
X11771952Y-7581667D01*
X11781476Y-7600714D01*
X11781476Y-7705476D01*
X11781476Y-7600714D02*
X11791000Y-7581667D01*
X11810048Y-7572143D01*
X11838619Y-7572143D01*
X11857667Y-7581667D01*
X11867190Y-7600714D01*
X11867190Y-7705476D01*
X11962428Y-7705476D02*
X11962428Y-7572143D01*
X11962428Y-7591190D02*
X11971952Y-7581667D01*
X11991000Y-7572143D01*
X12019571Y-7572143D01*
X12038619Y-7581667D01*
X12048143Y-7600714D01*
X12048143Y-7705476D01*
X12048143Y-7600714D02*
X12057667Y-7581667D01*
X12076714Y-7572143D01*
X12105286Y-7572143D01*
X12124333Y-7581667D01*
X12133857Y-7600714D01*
X12133857Y-7705476D01*
X12524333Y-7495952D02*
X12352905Y-7753095D01*
X12781476Y-7505476D02*
X12800524Y-7505476D01*
X12819571Y-7515000D01*
X12829095Y-7524524D01*
X12838619Y-7543571D01*
X12848143Y-7581667D01*
X12848143Y-7629286D01*
X12838619Y-7667381D01*
X12829095Y-7686428D01*
X12819571Y-7695952D01*
X12800524Y-7705476D01*
X12781476Y-7705476D01*
X12762428Y-7695952D01*
X12752905Y-7686428D01*
X12743381Y-7667381D01*
X12733857Y-7629286D01*
X12733857Y-7581667D01*
X12743381Y-7543571D01*
X12752905Y-7524524D01*
X12762428Y-7515000D01*
X12781476Y-7505476D01*
X12933857Y-7686428D02*
X12943381Y-7695952D01*
X12933857Y-7705476D01*
X12924333Y-7695952D01*
X12933857Y-7686428D01*
X12933857Y-7705476D01*
X13067190Y-7505476D02*
X13086238Y-7505476D01*
X13105286Y-7515000D01*
X13114809Y-7524524D01*
X13124333Y-7543571D01*
X13133857Y-7581667D01*
X13133857Y-7629286D01*
X13124333Y-7667381D01*
X13114809Y-7686428D01*
X13105286Y-7695952D01*
X13086238Y-7705476D01*
X13067190Y-7705476D01*
X13048143Y-7695952D01*
X13038619Y-7686428D01*
X13029095Y-7667381D01*
X13019571Y-7629286D01*
X13019571Y-7581667D01*
X13029095Y-7543571D01*
X13038619Y-7524524D01*
X13048143Y-7515000D01*
X13067190Y-7505476D01*
X13324333Y-7705476D02*
X13210048Y-7705476D01*
X13267190Y-7705476D02*
X13267190Y-7505476D01*
X13248143Y-7534048D01*
X13229095Y-7553095D01*
X13210048Y-7562619D01*
X13514809Y-7705476D02*
X13400524Y-7705476D01*
X13457667Y-7705476D02*
X13457667Y-7505476D01*
X13438619Y-7534048D01*
X13419571Y-7553095D01*
X13400524Y-7562619D01*
X13629095Y-7591190D02*
X13610048Y-7581667D01*
X13600524Y-7572143D01*
X13591000Y-7553095D01*
X13591000Y-7543571D01*
X13600524Y-7524524D01*
X13610048Y-7515000D01*
X13629095Y-7505476D01*
X13667190Y-7505476D01*
X13686238Y-7515000D01*
X13695762Y-7524524D01*
X13705286Y-7543571D01*
X13705286Y-7553095D01*
X13695762Y-7572143D01*
X13686238Y-7581667D01*
X13667190Y-7591190D01*
X13629095Y-7591190D01*
X13610048Y-7600714D01*
X13600524Y-7610238D01*
X13591000Y-7629286D01*
X13591000Y-7667381D01*
X13600524Y-7686428D01*
X13610048Y-7695952D01*
X13629095Y-7705476D01*
X13667190Y-7705476D01*
X13686238Y-7695952D01*
X13695762Y-7686428D01*
X13705286Y-7667381D01*
X13705286Y-7629286D01*
X13695762Y-7610238D01*
X13686238Y-7600714D01*
X13667190Y-7591190D01*
X13781476Y-7505476D02*
X13781476Y-7543571D01*
X13857667Y-7505476D02*
X13857667Y-7543571D01*
X14152905Y-7781667D02*
X14143381Y-7772143D01*
X14124333Y-7743571D01*
X14114809Y-7724524D01*
X14105286Y-7695952D01*
X14095762Y-7648333D01*
X14095762Y-7610238D01*
X14105286Y-7562619D01*
X14114809Y-7534048D01*
X14124333Y-7515000D01*
X14143381Y-7486428D01*
X14152905Y-7476905D01*
X14210048Y-7505476D02*
X14333857Y-7505476D01*
X14267190Y-7581667D01*
X14295762Y-7581667D01*
X14314809Y-7591190D01*
X14324333Y-7600714D01*
X14333857Y-7619762D01*
X14333857Y-7667381D01*
X14324333Y-7686428D01*
X14314809Y-7695952D01*
X14295762Y-7705476D01*
X14238619Y-7705476D01*
X14219571Y-7695952D01*
X14210048Y-7686428D01*
X14505286Y-7505476D02*
X14467190Y-7505476D01*
X14448143Y-7515000D01*
X14438619Y-7524524D01*
X14419571Y-7553095D01*
X14410048Y-7591190D01*
X14410048Y-7667381D01*
X14419571Y-7686428D01*
X14429095Y-7695952D01*
X14448143Y-7705476D01*
X14486238Y-7705476D01*
X14505286Y-7695952D01*
X14514809Y-7686428D01*
X14524333Y-7667381D01*
X14524333Y-7619762D01*
X14514809Y-7600714D01*
X14505286Y-7591190D01*
X14486238Y-7581667D01*
X14448143Y-7581667D01*
X14429095Y-7591190D01*
X14419571Y-7600714D01*
X14410048Y-7619762D01*
X14762428Y-7705476D02*
X14762428Y-7505476D01*
X14848143Y-7705476D02*
X14848143Y-7600714D01*
X14838619Y-7581667D01*
X14819571Y-7572143D01*
X14791000Y-7572143D01*
X14771952Y-7581667D01*
X14762428Y-7591190D01*
X14971952Y-7705476D02*
X14952905Y-7695952D01*
X14943381Y-7686428D01*
X14933857Y-7667381D01*
X14933857Y-7610238D01*
X14943381Y-7591190D01*
X14952905Y-7581667D01*
X14971952Y-7572143D01*
X15000524Y-7572143D01*
X15019571Y-7581667D01*
X15029095Y-7591190D01*
X15038619Y-7610238D01*
X15038619Y-7667381D01*
X15029095Y-7686428D01*
X15019571Y-7695952D01*
X15000524Y-7705476D01*
X14971952Y-7705476D01*
X15152905Y-7705476D02*
X15133857Y-7695952D01*
X15124333Y-7676905D01*
X15124333Y-7505476D01*
X15305286Y-7695952D02*
X15286238Y-7705476D01*
X15248143Y-7705476D01*
X15229095Y-7695952D01*
X15219571Y-7676905D01*
X15219571Y-7600714D01*
X15229095Y-7581667D01*
X15248143Y-7572143D01*
X15286238Y-7572143D01*
X15305286Y-7581667D01*
X15314809Y-7600714D01*
X15314809Y-7619762D01*
X15219571Y-7638809D01*
X15391000Y-7695952D02*
X15410048Y-7705476D01*
X15448143Y-7705476D01*
X15467190Y-7695952D01*
X15476714Y-7676905D01*
X15476714Y-7667381D01*
X15467190Y-7648333D01*
X15448143Y-7638809D01*
X15419571Y-7638809D01*
X15400524Y-7629286D01*
X15391000Y-7610238D01*
X15391000Y-7600714D01*
X15400524Y-7581667D01*
X15419571Y-7572143D01*
X15448143Y-7572143D01*
X15467190Y-7581667D01*
X15543381Y-7781667D02*
X15552905Y-7772143D01*
X15571952Y-7743571D01*
X15581476Y-7724524D01*
X15591000Y-7695952D01*
X15600524Y-7648333D01*
X15600524Y-7610238D01*
X15591000Y-7562619D01*
X15581476Y-7534048D01*
X15571952Y-7515000D01*
X15552905Y-7486428D01*
X15543381Y-7476905D01*
D13*
X10581000Y-7879000D02*
G75*
G03*
X10581000Y-7879000I-30000J0D01*
G01*
D11*
X10876714Y-7769476D02*
X10895762Y-7769476D01*
X10914810Y-7779000D01*
X10924333Y-7788524D01*
X10933857Y-7807571D01*
X10943381Y-7845667D01*
X10943381Y-7893286D01*
X10933857Y-7931381D01*
X10924333Y-7950428D01*
X10914810Y-7959952D01*
X10895762Y-7969476D01*
X10876714Y-7969476D01*
X10857667Y-7959952D01*
X10848143Y-7950428D01*
X10838619Y-7931381D01*
X10829095Y-7893286D01*
X10829095Y-7845667D01*
X10838619Y-7807571D01*
X10848143Y-7788524D01*
X10857667Y-7779000D01*
X10876714Y-7769476D01*
X11029095Y-7950428D02*
X11038619Y-7959952D01*
X11029095Y-7969476D01*
X11019571Y-7959952D01*
X11029095Y-7950428D01*
X11029095Y-7969476D01*
X11210048Y-7769476D02*
X11171952Y-7769476D01*
X11152905Y-7779000D01*
X11143381Y-7788524D01*
X11124333Y-7817095D01*
X11114810Y-7855190D01*
X11114810Y-7931381D01*
X11124333Y-7950428D01*
X11133857Y-7959952D01*
X11152905Y-7969476D01*
X11191000Y-7969476D01*
X11210048Y-7959952D01*
X11219571Y-7950428D01*
X11229095Y-7931381D01*
X11229095Y-7883762D01*
X11219571Y-7864714D01*
X11210048Y-7855190D01*
X11191000Y-7845667D01*
X11152905Y-7845667D01*
X11133857Y-7855190D01*
X11124333Y-7864714D01*
X11114810Y-7883762D01*
X11352905Y-7769476D02*
X11371952Y-7769476D01*
X11391000Y-7779000D01*
X11400524Y-7788524D01*
X11410048Y-7807571D01*
X11419571Y-7845667D01*
X11419571Y-7893286D01*
X11410048Y-7931381D01*
X11400524Y-7950428D01*
X11391000Y-7959952D01*
X11371952Y-7969476D01*
X11352905Y-7969476D01*
X11333857Y-7959952D01*
X11324333Y-7950428D01*
X11314809Y-7931381D01*
X11305286Y-7893286D01*
X11305286Y-7845667D01*
X11314809Y-7807571D01*
X11324333Y-7788524D01*
X11333857Y-7779000D01*
X11352905Y-7769476D01*
X11543381Y-7769476D02*
X11562428Y-7769476D01*
X11581476Y-7779000D01*
X11591000Y-7788524D01*
X11600524Y-7807571D01*
X11610048Y-7845667D01*
X11610048Y-7893286D01*
X11600524Y-7931381D01*
X11591000Y-7950428D01*
X11581476Y-7959952D01*
X11562428Y-7969476D01*
X11543381Y-7969476D01*
X11524333Y-7959952D01*
X11514809Y-7950428D01*
X11505286Y-7931381D01*
X11495762Y-7893286D01*
X11495762Y-7845667D01*
X11505286Y-7807571D01*
X11514809Y-7788524D01*
X11524333Y-7779000D01*
X11543381Y-7769476D01*
X11695762Y-7969476D02*
X11695762Y-7836143D01*
X11695762Y-7855190D02*
X11705286Y-7845667D01*
X11724333Y-7836143D01*
X11752905Y-7836143D01*
X11771952Y-7845667D01*
X11781476Y-7864714D01*
X11781476Y-7969476D01*
X11781476Y-7864714D02*
X11791000Y-7845667D01*
X11810048Y-7836143D01*
X11838619Y-7836143D01*
X11857667Y-7845667D01*
X11867190Y-7864714D01*
X11867190Y-7969476D01*
X11962428Y-7969476D02*
X11962428Y-7836143D01*
X11962428Y-7855190D02*
X11971952Y-7845667D01*
X11991000Y-7836143D01*
X12019571Y-7836143D01*
X12038619Y-7845667D01*
X12048143Y-7864714D01*
X12048143Y-7969476D01*
X12048143Y-7864714D02*
X12057667Y-7845667D01*
X12076714Y-7836143D01*
X12105286Y-7836143D01*
X12124333Y-7845667D01*
X12133857Y-7864714D01*
X12133857Y-7969476D01*
X12524333Y-7759952D02*
X12352905Y-8017095D01*
X12781476Y-7769476D02*
X12800524Y-7769476D01*
X12819571Y-7779000D01*
X12829095Y-7788524D01*
X12838619Y-7807571D01*
X12848143Y-7845667D01*
X12848143Y-7893286D01*
X12838619Y-7931381D01*
X12829095Y-7950428D01*
X12819571Y-7959952D01*
X12800524Y-7969476D01*
X12781476Y-7969476D01*
X12762428Y-7959952D01*
X12752905Y-7950428D01*
X12743381Y-7931381D01*
X12733857Y-7893286D01*
X12733857Y-7845667D01*
X12743381Y-7807571D01*
X12752905Y-7788524D01*
X12762428Y-7779000D01*
X12781476Y-7769476D01*
X12933857Y-7950428D02*
X12943381Y-7959952D01*
X12933857Y-7969476D01*
X12924333Y-7959952D01*
X12933857Y-7950428D01*
X12933857Y-7969476D01*
X13067190Y-7769476D02*
X13086238Y-7769476D01*
X13105286Y-7779000D01*
X13114809Y-7788524D01*
X13124333Y-7807571D01*
X13133857Y-7845667D01*
X13133857Y-7893286D01*
X13124333Y-7931381D01*
X13114809Y-7950428D01*
X13105286Y-7959952D01*
X13086238Y-7969476D01*
X13067190Y-7969476D01*
X13048143Y-7959952D01*
X13038619Y-7950428D01*
X13029095Y-7931381D01*
X13019571Y-7893286D01*
X13019571Y-7845667D01*
X13029095Y-7807571D01*
X13038619Y-7788524D01*
X13048143Y-7779000D01*
X13067190Y-7769476D01*
X13210048Y-7788524D02*
X13219571Y-7779000D01*
X13238619Y-7769476D01*
X13286238Y-7769476D01*
X13305286Y-7779000D01*
X13314809Y-7788524D01*
X13324333Y-7807571D01*
X13324333Y-7826619D01*
X13314809Y-7855190D01*
X13200524Y-7969476D01*
X13324333Y-7969476D01*
X13391000Y-7769476D02*
X13514809Y-7769476D01*
X13448143Y-7845667D01*
X13476714Y-7845667D01*
X13495762Y-7855190D01*
X13505286Y-7864714D01*
X13514809Y-7883762D01*
X13514809Y-7931381D01*
X13505286Y-7950428D01*
X13495762Y-7959952D01*
X13476714Y-7969476D01*
X13419571Y-7969476D01*
X13400524Y-7959952D01*
X13391000Y-7950428D01*
X13686238Y-7769476D02*
X13648143Y-7769476D01*
X13629095Y-7779000D01*
X13619571Y-7788524D01*
X13600524Y-7817095D01*
X13591000Y-7855190D01*
X13591000Y-7931381D01*
X13600524Y-7950428D01*
X13610048Y-7959952D01*
X13629095Y-7969476D01*
X13667190Y-7969476D01*
X13686238Y-7959952D01*
X13695762Y-7950428D01*
X13705286Y-7931381D01*
X13705286Y-7883762D01*
X13695762Y-7864714D01*
X13686238Y-7855190D01*
X13667190Y-7845667D01*
X13629095Y-7845667D01*
X13610048Y-7855190D01*
X13600524Y-7864714D01*
X13591000Y-7883762D01*
X13781476Y-7769476D02*
X13781476Y-7807571D01*
X13857667Y-7769476D02*
X13857667Y-7807571D01*
X14152905Y-8045667D02*
X14143381Y-8036143D01*
X14124333Y-8007571D01*
X14114809Y-7988524D01*
X14105286Y-7959952D01*
X14095762Y-7912333D01*
X14095762Y-7874238D01*
X14105286Y-7826619D01*
X14114809Y-7798048D01*
X14124333Y-7779000D01*
X14143381Y-7750428D01*
X14152905Y-7740905D01*
X14210048Y-7769476D02*
X14333857Y-7769476D01*
X14267190Y-7845667D01*
X14295762Y-7845667D01*
X14314809Y-7855190D01*
X14324333Y-7864714D01*
X14333857Y-7883762D01*
X14333857Y-7931381D01*
X14324333Y-7950428D01*
X14314809Y-7959952D01*
X14295762Y-7969476D01*
X14238619Y-7969476D01*
X14219571Y-7959952D01*
X14210048Y-7950428D01*
X14410048Y-7788524D02*
X14419571Y-7779000D01*
X14438619Y-7769476D01*
X14486238Y-7769476D01*
X14505286Y-7779000D01*
X14514809Y-7788524D01*
X14524333Y-7807571D01*
X14524333Y-7826619D01*
X14514809Y-7855190D01*
X14400524Y-7969476D01*
X14524333Y-7969476D01*
X14762428Y-7969476D02*
X14762428Y-7769476D01*
X14848143Y-7969476D02*
X14848143Y-7864714D01*
X14838619Y-7845667D01*
X14819571Y-7836143D01*
X14791000Y-7836143D01*
X14771952Y-7845667D01*
X14762428Y-7855190D01*
X14971952Y-7969476D02*
X14952905Y-7959952D01*
X14943381Y-7950428D01*
X14933857Y-7931381D01*
X14933857Y-7874238D01*
X14943381Y-7855190D01*
X14952905Y-7845667D01*
X14971952Y-7836143D01*
X15000524Y-7836143D01*
X15019571Y-7845667D01*
X15029095Y-7855190D01*
X15038619Y-7874238D01*
X15038619Y-7931381D01*
X15029095Y-7950428D01*
X15019571Y-7959952D01*
X15000524Y-7969476D01*
X14971952Y-7969476D01*
X15152905Y-7969476D02*
X15133857Y-7959952D01*
X15124333Y-7940905D01*
X15124333Y-7769476D01*
X15305286Y-7959952D02*
X15286238Y-7969476D01*
X15248143Y-7969476D01*
X15229095Y-7959952D01*
X15219571Y-7940905D01*
X15219571Y-7864714D01*
X15229095Y-7845667D01*
X15248143Y-7836143D01*
X15286238Y-7836143D01*
X15305286Y-7845667D01*
X15314809Y-7864714D01*
X15314809Y-7883762D01*
X15219571Y-7902809D01*
X15391000Y-7959952D02*
X15410048Y-7969476D01*
X15448143Y-7969476D01*
X15467190Y-7959952D01*
X15476714Y-7940905D01*
X15476714Y-7931381D01*
X15467190Y-7912333D01*
X15448143Y-7902809D01*
X15419571Y-7902809D01*
X15400524Y-7893286D01*
X15391000Y-7874238D01*
X15391000Y-7864714D01*
X15400524Y-7845667D01*
X15419571Y-7836143D01*
X15448143Y-7836143D01*
X15467190Y-7845667D01*
X15543381Y-8045667D02*
X15552905Y-8036143D01*
X15571952Y-8007571D01*
X15581476Y-7988524D01*
X15591000Y-7959952D01*
X15600524Y-7912333D01*
X15600524Y-7874238D01*
X15591000Y-7826619D01*
X15581476Y-7798048D01*
X15571952Y-7779000D01*
X15552905Y-7750428D01*
X15543381Y-7740905D01*
M02*
