G04 #@! TF.GenerationSoftware,KiCad,Pcbnew,(6.0.1-0)*
G04 #@! TF.CreationDate,2022-03-15T16:22:54-04:00*
G04 #@! TF.ProjectId,MBC1-TSOP40,4d424331-2d54-4534-9f50-34302e6b6963,rev?*
G04 #@! TF.SameCoordinates,Original*
G04 #@! TF.FileFunction,Paste,Top*
G04 #@! TF.FilePolarity,Positive*
%FSLAX46Y46*%
G04 Gerber Fmt 4.6, Leading zero omitted, Abs format (unit mm)*
G04 Created by KiCad (PCBNEW (6.0.1-0)) date 2022-03-15 16:22:54*
%MOMM*%
%LPD*%
G01*
G04 APERTURE LIST*
%ADD10R,0.250000X1.100000*%
G04 APERTURE END LIST*
D10*
G04 #@! TO.C,REF\u002A\u002A*
X117370000Y-49330000D03*
X116870000Y-49330000D03*
X116370000Y-49330000D03*
X115870000Y-49330000D03*
X115370000Y-49330000D03*
X114870000Y-49330000D03*
X114370000Y-49330000D03*
X113870000Y-49330000D03*
X113370000Y-49330000D03*
X112870000Y-49330000D03*
X112370000Y-49330000D03*
X111870000Y-49330000D03*
X111370000Y-49330000D03*
X110870000Y-49330000D03*
X110370000Y-49330000D03*
X109870000Y-49330000D03*
X109370000Y-49330000D03*
X108870000Y-49330000D03*
X108370000Y-49330000D03*
X107870000Y-49330000D03*
X107870000Y-68830000D03*
X108370000Y-68830000D03*
X108870000Y-68830000D03*
X109370000Y-68830000D03*
X109870000Y-68830000D03*
X110370000Y-68830000D03*
X110870000Y-68830000D03*
X111370000Y-68830000D03*
X111870000Y-68830000D03*
X112370000Y-68830000D03*
X112870000Y-68830000D03*
X113370000Y-68830000D03*
X113870000Y-68830000D03*
X114370000Y-68830000D03*
X114870000Y-68830000D03*
X115370000Y-68830000D03*
X115870000Y-68830000D03*
X116370000Y-68830000D03*
X116870000Y-68830000D03*
X117370000Y-68830000D03*
G04 #@! TD*
M02*
