G04 #@! TF.GenerationSoftware,KiCad,Pcbnew,(6.0.1-0)*
G04 #@! TF.CreationDate,2022-03-14T10:45:46-04:00*
G04 #@! TF.ProjectId,MBC1-PLCC32,4d424331-2d50-44c4-9343-33322e6b6963,rev?*
G04 #@! TF.SameCoordinates,Original*
G04 #@! TF.FileFunction,Copper,L1,Top*
G04 #@! TF.FilePolarity,Positive*
%FSLAX46Y46*%
G04 Gerber Fmt 4.6, Leading zero omitted, Abs format (unit mm)*
G04 Created by KiCad (PCBNEW (6.0.1-0)) date 2022-03-14 10:45:46*
%MOMM*%
%LPD*%
G01*
G04 APERTURE LIST*
G04 Aperture macros list*
%AMRoundRect*
0 Rectangle with rounded corners*
0 $1 Rounding radius*
0 $2 $3 $4 $5 $6 $7 $8 $9 X,Y pos of 4 corners*
0 Add a 4 corners polygon primitive as box body*
4,1,4,$2,$3,$4,$5,$6,$7,$8,$9,$2,$3,0*
0 Add four circle primitives for the rounded corners*
1,1,$1+$1,$2,$3*
1,1,$1+$1,$4,$5*
1,1,$1+$1,$6,$7*
1,1,$1+$1,$8,$9*
0 Add four rect primitives between the rounded corners*
20,1,$1+$1,$2,$3,$4,$5,0*
20,1,$1+$1,$4,$5,$6,$7,0*
20,1,$1+$1,$6,$7,$8,$9,0*
20,1,$1+$1,$8,$9,$2,$3,0*%
G04 Aperture macros list end*
G04 #@! TA.AperFunction,SMDPad,CuDef*
%ADD10RoundRect,0.150000X-0.150000X-0.587500X0.150000X-0.587500X0.150000X0.587500X-0.150000X0.587500X0*%
G04 #@! TD*
G04 #@! TA.AperFunction,SMDPad,CuDef*
%ADD11RoundRect,0.150000X-0.587500X-0.150000X0.587500X-0.150000X0.587500X0.150000X-0.587500X0.150000X0*%
G04 #@! TD*
G04 #@! TA.AperFunction,SMDPad,CuDef*
%ADD12R,1.000000X1.000000*%
G04 #@! TD*
G04 #@! TA.AperFunction,SMDPad,CuDef*
%ADD13RoundRect,0.225000X-0.225000X-0.250000X0.225000X-0.250000X0.225000X0.250000X-0.225000X0.250000X0*%
G04 #@! TD*
G04 #@! TA.AperFunction,ViaPad*
%ADD14C,0.800000*%
G04 #@! TD*
G04 #@! TA.AperFunction,Conductor*
%ADD15C,0.250000*%
G04 #@! TD*
G04 #@! TA.AperFunction,Conductor*
%ADD16C,0.600000*%
G04 #@! TD*
G04 APERTURE END LIST*
D10*
G04 #@! TO.P,U1,1*
G04 #@! TO.N,A18*
X112900000Y-51342500D03*
G04 #@! TO.P,U1,2*
G04 #@! TO.N,A16*
X111630000Y-51342500D03*
G04 #@! TO.P,U1,3*
G04 #@! TO.N,A15*
X110360000Y-51342500D03*
G04 #@! TO.P,U1,4*
G04 #@! TO.N,A12*
X109090000Y-51342500D03*
D11*
G04 #@! TO.P,U1,5*
G04 #@! TO.N,A7*
X107337500Y-53100000D03*
G04 #@! TO.P,U1,6*
G04 #@! TO.N,A6*
X107337500Y-54370000D03*
G04 #@! TO.P,U1,7*
G04 #@! TO.N,A5*
X107337500Y-55640000D03*
G04 #@! TO.P,U1,8*
G04 #@! TO.N,A4*
X107337500Y-56910000D03*
G04 #@! TO.P,U1,9*
G04 #@! TO.N,A3*
X107337500Y-58180000D03*
G04 #@! TO.P,U1,10*
G04 #@! TO.N,A2*
X107337500Y-59450000D03*
G04 #@! TO.P,U1,11*
G04 #@! TO.N,A1*
X107337500Y-60720000D03*
G04 #@! TO.P,U1,12*
G04 #@! TO.N,A0*
X107337500Y-61990000D03*
G04 #@! TO.P,U1,13*
G04 #@! TO.N,D0*
X107337500Y-63260000D03*
D10*
G04 #@! TO.P,U1,14*
G04 #@! TO.N,D1*
X109090000Y-65017500D03*
G04 #@! TO.P,U1,15*
G04 #@! TO.N,D2*
X110360000Y-65017500D03*
G04 #@! TO.P,U1,16*
G04 #@! TO.N,GND*
X111630000Y-65017500D03*
G04 #@! TO.P,U1,17*
G04 #@! TO.N,D3*
X112900000Y-65017500D03*
G04 #@! TO.P,U1,18*
G04 #@! TO.N,D4*
X114170000Y-65017500D03*
G04 #@! TO.P,U1,19*
G04 #@! TO.N,D5*
X115440000Y-65017500D03*
G04 #@! TO.P,U1,20*
G04 #@! TO.N,D6*
X116710000Y-65017500D03*
D11*
G04 #@! TO.P,U1,21*
G04 #@! TO.N,D7*
X118462500Y-63260000D03*
G04 #@! TO.P,U1,22*
G04 #@! TO.N,CE*
X118462500Y-61990000D03*
G04 #@! TO.P,U1,23*
G04 #@! TO.N,A10*
X118462500Y-60720000D03*
G04 #@! TO.P,U1,24*
G04 #@! TO.N,/OE*
X118462500Y-59450000D03*
G04 #@! TO.P,U1,25*
G04 #@! TO.N,A11*
X118462500Y-58180000D03*
G04 #@! TO.P,U1,26*
G04 #@! TO.N,A9*
X118462500Y-56910000D03*
G04 #@! TO.P,U1,27*
G04 #@! TO.N,A8*
X118462500Y-55640000D03*
G04 #@! TO.P,U1,28*
G04 #@! TO.N,A13*
X118462500Y-54370000D03*
G04 #@! TO.P,U1,29*
G04 #@! TO.N,A14*
X118462500Y-53100000D03*
D10*
G04 #@! TO.P,U1,30*
G04 #@! TO.N,A17*
X116710000Y-51342500D03*
G04 #@! TO.P,U1,31*
G04 #@! TO.N,/WE*
X115440000Y-51342500D03*
G04 #@! TO.P,U1,32*
G04 #@! TO.N,VCC*
X114170000Y-51342500D03*
G04 #@! TD*
D12*
G04 #@! TO.P,REF\u002A\u002A,1*
G04 #@! TO.N,/WE*
X112260000Y-68550000D03*
G04 #@! TD*
D13*
G04 #@! TO.P,R1,1*
G04 #@! TO.N,/WE*
X112585000Y-48850000D03*
G04 #@! TO.P,R1,2*
G04 #@! TO.N,VCC*
X114135000Y-48850000D03*
G04 #@! TD*
D14*
G04 #@! TO.N,VCC*
X119400000Y-49300000D03*
G04 #@! TO.N,A18*
X119400000Y-50570000D03*
X112900000Y-53200000D03*
G04 #@! TO.N,A17*
X119400000Y-51840000D03*
G04 #@! TO.N,A14*
X119400000Y-53110000D03*
G04 #@! TO.N,A13*
X119400000Y-54380000D03*
G04 #@! TO.N,A8*
X119400000Y-55650000D03*
G04 #@! TO.N,A9*
X119400000Y-56920000D03*
G04 #@! TO.N,A11*
X119400000Y-58190000D03*
G04 #@! TO.N,/OE*
X119400000Y-59460000D03*
G04 #@! TO.N,A10*
X119400000Y-60730000D03*
G04 #@! TO.N,CE*
X119400000Y-62000000D03*
G04 #@! TO.N,D7*
X119400000Y-63270000D03*
G04 #@! TO.N,D6*
X119400000Y-64540000D03*
G04 #@! TO.N,D5*
X119400000Y-65810000D03*
G04 #@! TO.N,D4*
X119400000Y-67080000D03*
G04 #@! TO.N,D3*
X119400000Y-68350000D03*
G04 #@! TO.N,GND*
X105850000Y-68350000D03*
G04 #@! TO.N,D2*
X105850000Y-67080000D03*
G04 #@! TO.N,D1*
X105850000Y-65810000D03*
G04 #@! TO.N,D0*
X105850000Y-64540000D03*
G04 #@! TO.N,A0*
X105850000Y-63270000D03*
G04 #@! TO.N,A1*
X105850000Y-62000000D03*
G04 #@! TO.N,A2*
X105850000Y-60730000D03*
G04 #@! TO.N,A3*
X105850000Y-59460000D03*
G04 #@! TO.N,A4*
X105850000Y-58190000D03*
G04 #@! TO.N,A5*
X105850000Y-56920000D03*
G04 #@! TO.N,A6*
X105850000Y-55650000D03*
G04 #@! TO.N,A7*
X105850000Y-54380000D03*
G04 #@! TO.N,A12*
X105850000Y-53110000D03*
G04 #@! TO.N,A15*
X105850000Y-51840000D03*
G04 #@! TO.N,A16*
X105850000Y-50570000D03*
G04 #@! TO.N,/OE1*
X105850000Y-49300000D03*
G04 #@! TO.N,/WE*
X115400000Y-53150000D03*
X112250000Y-66800000D03*
X111050000Y-48810000D03*
G04 #@! TD*
D15*
G04 #@! TO.N,VCC*
X114170000Y-51362500D02*
X114170000Y-50980000D01*
D16*
X114170000Y-51342500D02*
X114170000Y-50956441D01*
X115826441Y-49300000D02*
X119099980Y-49300000D01*
X114170000Y-50956441D02*
X115826441Y-49300000D01*
X115376441Y-48850000D02*
X115826441Y-49300000D01*
X114135000Y-48850000D02*
X115376441Y-48850000D01*
D15*
G04 #@! TO.N,A18*
X112900000Y-51362500D02*
X112900000Y-53200000D01*
G04 #@! TO.N,A17*
X119274980Y-51714980D02*
X119274980Y-51840000D01*
X116710000Y-51342500D02*
X118902500Y-51342500D01*
X118902500Y-51342500D02*
X119274980Y-51714980D01*
D16*
G04 #@! TO.N,A14*
X119099980Y-53100000D02*
X119099980Y-53110000D01*
X118462500Y-53100000D02*
X119099980Y-53100000D01*
G04 #@! TO.N,A13*
X118462500Y-54370000D02*
X119099980Y-54370000D01*
X119099980Y-54370000D02*
X119099980Y-54380000D01*
G04 #@! TO.N,A8*
X118462500Y-55640000D02*
X119099980Y-55640000D01*
X119099980Y-55640000D02*
X119099980Y-55650000D01*
G04 #@! TO.N,A9*
X118462500Y-56910000D02*
X119099980Y-56910000D01*
X119099980Y-56910000D02*
X119099980Y-56920000D01*
G04 #@! TO.N,A11*
X119099980Y-58180000D02*
X119099980Y-58190000D01*
X118462500Y-58180000D02*
X119099980Y-58180000D01*
G04 #@! TO.N,/OE*
X119099980Y-59450000D02*
X119099980Y-59460000D01*
X118462500Y-59450000D02*
X119099980Y-59450000D01*
G04 #@! TO.N,A10*
X119099980Y-60720000D02*
X119099980Y-60730000D01*
X118462500Y-60720000D02*
X119099980Y-60720000D01*
D15*
G04 #@! TO.N,CE*
X118462500Y-62010000D02*
X119174980Y-62010000D01*
D16*
X118462500Y-61990000D02*
X119099980Y-61990000D01*
X119099980Y-61990000D02*
X119099980Y-62000000D01*
G04 #@! TO.N,D7*
X118462500Y-63260000D02*
X119099980Y-63260000D01*
X119099980Y-63260000D02*
X119099980Y-63270000D01*
D15*
G04 #@! TO.N,D6*
X118922500Y-65017500D02*
X119274980Y-64665020D01*
X116710000Y-65017500D02*
X118922500Y-65017500D01*
X119274980Y-64665020D02*
X119274980Y-64540000D01*
G04 #@! TO.N,D5*
X119274980Y-65935020D02*
X119274980Y-65810000D01*
X115440000Y-66110000D02*
X115750000Y-66420000D01*
X115440000Y-65017500D02*
X115440000Y-66110000D01*
X115750000Y-66420000D02*
X118790000Y-66420000D01*
X118790000Y-66420000D02*
X119274980Y-65935020D01*
G04 #@! TO.N,D4*
X115070000Y-67080000D02*
X119274980Y-67080000D01*
X114170000Y-65017500D02*
X114170000Y-66180000D01*
X114170000Y-66180000D02*
X115070000Y-67080000D01*
G04 #@! TO.N,D3*
X115000000Y-68350000D02*
X119274980Y-68350000D01*
X112900000Y-66250000D02*
X115000000Y-68350000D01*
X112900000Y-65017500D02*
X112900000Y-66250000D01*
D16*
G04 #@! TO.N,GND*
X109250000Y-68350000D02*
X106150020Y-68350000D01*
X111630000Y-65970000D02*
X109250000Y-68350000D01*
X111630000Y-65017500D02*
X111630000Y-65970000D01*
D15*
G04 #@! TO.N,D2*
X108460000Y-67080000D02*
X105975020Y-67080000D01*
X110360000Y-65017500D02*
X110360000Y-65180000D01*
X110360000Y-65180000D02*
X108460000Y-67080000D01*
G04 #@! TO.N,D1*
X109090000Y-65017500D02*
X106642500Y-65017500D01*
X106642500Y-65017500D02*
X105975020Y-65684980D01*
X105975020Y-65684980D02*
X105975020Y-65810000D01*
G04 #@! TO.N,D0*
X105975020Y-64414980D02*
X105975020Y-64540000D01*
X107090000Y-63260000D02*
X107337500Y-63260000D01*
X107130000Y-63260000D02*
X105975020Y-64414980D01*
G04 #@! TO.N,A0*
X107110000Y-61990000D02*
X107337500Y-61990000D01*
X107130000Y-61990000D02*
X105975020Y-63144980D01*
X105975020Y-63144980D02*
X105975020Y-63270000D01*
G04 #@! TO.N,A1*
X107130000Y-60720000D02*
X105975020Y-61874980D01*
X107080000Y-60720000D02*
X107337500Y-60720000D01*
X105975020Y-61874980D02*
X105975020Y-62000000D01*
G04 #@! TO.N,A2*
X107130000Y-59450000D02*
X105975020Y-60604980D01*
X107100000Y-59450000D02*
X107337500Y-59450000D01*
X105975020Y-60604980D02*
X105975020Y-60730000D01*
G04 #@! TO.N,A3*
X107337500Y-58180000D02*
X107198928Y-58180000D01*
X107198928Y-58180000D02*
X105975020Y-59403908D01*
X105975020Y-59403908D02*
X105975020Y-59460000D01*
G04 #@! TO.N,A4*
X107337500Y-56930000D02*
X107070000Y-56930000D01*
X105975020Y-57819594D02*
X105975020Y-58190000D01*
X107337500Y-56910000D02*
X106884614Y-56910000D01*
X106884614Y-56910000D02*
X105975020Y-57819594D01*
G04 #@! TO.N,A5*
X107337500Y-55640000D02*
X107130000Y-55640000D01*
X107130000Y-55640000D02*
X105975020Y-56794980D01*
X105975020Y-56794980D02*
X105975020Y-56920000D01*
X107337500Y-55660000D02*
X107090000Y-55660000D01*
G04 #@! TO.N,A6*
X107198928Y-54370000D02*
X105975020Y-55593908D01*
X107337500Y-54370000D02*
X107198928Y-54370000D01*
X105975020Y-55593908D02*
X105975020Y-55650000D01*
G04 #@! TO.N,A7*
X107130000Y-53100000D02*
X105975020Y-54254980D01*
X105975020Y-54254980D02*
X105975020Y-54380000D01*
X105975020Y-54224980D02*
X105975020Y-54350000D01*
X107337500Y-53120000D02*
X107080000Y-53120000D01*
X107337500Y-53100000D02*
X107130000Y-53100000D01*
G04 #@! TO.N,A12*
X107587500Y-51441428D02*
X105975020Y-53053908D01*
X109090000Y-51362500D02*
X107587500Y-51362500D01*
X105975020Y-53053908D02*
X105975020Y-53110000D01*
X107587500Y-51362500D02*
X107587500Y-51441428D01*
G04 #@! TO.N,A15*
X105975020Y-51674980D02*
X105975020Y-51840000D01*
X109700000Y-49950000D02*
X110360000Y-50610000D01*
X110360000Y-50610000D02*
X110360000Y-51362500D01*
X109700000Y-49950000D02*
X107700000Y-49950000D01*
X107700000Y-49950000D02*
X105975020Y-51674980D01*
G04 #@! TO.N,A16*
X111630000Y-51362500D02*
X111630000Y-50830000D01*
X109950000Y-49150000D02*
X107250000Y-49150000D01*
X111630000Y-50830000D02*
X109950000Y-49150000D01*
X105975020Y-50424980D02*
X105975020Y-50570000D01*
X107250000Y-49150000D02*
X105975020Y-50424980D01*
G04 #@! TO.N,/WE*
X111090000Y-48850000D02*
X111050000Y-48810000D01*
X115440000Y-53110000D02*
X115400000Y-53150000D01*
X115440000Y-51342500D02*
X115440000Y-53110000D01*
X112585000Y-48850000D02*
X111090000Y-48850000D01*
X112250000Y-66800000D02*
X112250000Y-68540000D01*
X112250000Y-68540000D02*
X112260000Y-68550000D01*
G04 #@! TD*
M02*
