M48
; DRILL file {KiCad (6.0.1-0)} date Monday, March 14, 2022 at 10:45:43 AM
; FORMAT={-:-/ absolute / inch / decimal}
; #@! TF.CreationDate,2022-03-14T10:45:43-04:00
; #@! TF.GenerationSoftware,Kicad,Pcbnew,(6.0.1-0)
; #@! TF.FileFunction,Plated,1,2,PTH
FMAT,2
INCH
; #@! TA.AperFunction,Plated,PTH,ViaDrill
T1C0.0157
; #@! TA.AperFunction,Plated,PTH,ViaDrill
T2C0.0236
%
G90
G05
T1
X4.372Y-1.9217
X4.4193Y-2.6299
X4.4449Y-2.0945
X4.5433Y-2.0925
T2
X4.1673Y-1.9409
X4.1673Y-1.9909
X4.1673Y-2.0409
X4.1673Y-2.0909
X4.1673Y-2.1409
X4.1673Y-2.1909
X4.1673Y-2.2409
X4.1673Y-2.2909
X4.1673Y-2.3409
X4.1673Y-2.3909
X4.1673Y-2.4409
X4.1673Y-2.4909
X4.1673Y-2.5409
X4.1673Y-2.5909
X4.1673Y-2.6409
X4.1673Y-2.6909
X4.7008Y-1.9409
X4.7008Y-1.9909
X4.7008Y-2.0409
X4.7008Y-2.0909
X4.7008Y-2.1409
X4.7008Y-2.1909
X4.7008Y-2.2409
X4.7008Y-2.2909
X4.7008Y-2.3409
X4.7008Y-2.3909
X4.7008Y-2.4409
X4.7008Y-2.4909
X4.7008Y-2.5409
X4.7008Y-2.5909
X4.7008Y-2.6409
X4.7008Y-2.6909
T0
M30
