G04 #@! TF.GenerationSoftware,KiCad,Pcbnew,(6.0.1-0)*
G04 #@! TF.CreationDate,2022-03-14T10:45:46-04:00*
G04 #@! TF.ProjectId,MBC1-PLCC32,4d424331-2d50-44c4-9343-33322e6b6963,rev?*
G04 #@! TF.SameCoordinates,Original*
G04 #@! TF.FileFunction,Legend,Top*
G04 #@! TF.FilePolarity,Positive*
%FSLAX46Y46*%
G04 Gerber Fmt 4.6, Leading zero omitted, Abs format (unit mm)*
G04 Created by KiCad (PCBNEW (6.0.1-0)) date 2022-03-14 10:45:46*
%MOMM*%
%LPD*%
G01*
G04 APERTURE LIST*
%ADD10C,0.150000*%
%ADD11C,0.120000*%
G04 APERTURE END LIST*
D10*
X115664285Y-48325714D02*
X115664285Y-48992380D01*
X115426190Y-47944761D02*
X115188095Y-48659047D01*
X115807142Y-48659047D01*
X116092857Y-47992380D02*
X116759523Y-47992380D01*
X116330952Y-48992380D01*
X117140476Y-48992380D02*
X117140476Y-47992380D01*
X117711904Y-48992380D02*
X117283333Y-48420952D01*
X117711904Y-47992380D02*
X117140476Y-48563809D01*
X108721428Y-62765714D02*
X108959523Y-63432380D01*
X109197619Y-62765714D01*
X110102380Y-63432380D02*
X109530952Y-63432380D01*
X109816666Y-63432380D02*
X109816666Y-62432380D01*
X109721428Y-62575238D01*
X109626190Y-62670476D01*
X109530952Y-62718095D01*
X110530952Y-63337142D02*
X110578571Y-63384761D01*
X110530952Y-63432380D01*
X110483333Y-63384761D01*
X110530952Y-63337142D01*
X110530952Y-63432380D01*
X111197619Y-62432380D02*
X111292857Y-62432380D01*
X111388095Y-62480000D01*
X111435714Y-62527619D01*
X111483333Y-62622857D01*
X111530952Y-62813333D01*
X111530952Y-63051428D01*
X111483333Y-63241904D01*
X111435714Y-63337142D01*
X111388095Y-63384761D01*
X111292857Y-63432380D01*
X111197619Y-63432380D01*
X111102380Y-63384761D01*
X111054761Y-63337142D01*
X111007142Y-63241904D01*
X110959523Y-63051428D01*
X110959523Y-62813333D01*
X111007142Y-62622857D01*
X111054761Y-62527619D01*
X111102380Y-62480000D01*
X111197619Y-62432380D01*
X110430952Y-56287619D02*
X110478571Y-56240000D01*
X110573809Y-56192380D01*
X110811904Y-56192380D01*
X110907142Y-56240000D01*
X110954761Y-56287619D01*
X111002380Y-56382857D01*
X111002380Y-56478095D01*
X110954761Y-56620952D01*
X110383333Y-57192380D01*
X111002380Y-57192380D01*
X111478571Y-57192380D02*
X111669047Y-57192380D01*
X111764285Y-57144761D01*
X111811904Y-57097142D01*
X111907142Y-56954285D01*
X111954761Y-56763809D01*
X111954761Y-56382857D01*
X111907142Y-56287619D01*
X111859523Y-56240000D01*
X111764285Y-56192380D01*
X111573809Y-56192380D01*
X111478571Y-56240000D01*
X111430952Y-56287619D01*
X111383333Y-56382857D01*
X111383333Y-56620952D01*
X111430952Y-56716190D01*
X111478571Y-56763809D01*
X111573809Y-56811428D01*
X111764285Y-56811428D01*
X111859523Y-56763809D01*
X111907142Y-56716190D01*
X111954761Y-56620952D01*
X112716666Y-56668571D02*
X112383333Y-56668571D01*
X112383333Y-57192380D02*
X112383333Y-56192380D01*
X112859523Y-56192380D01*
X113430952Y-56192380D02*
X113526190Y-56192380D01*
X113621428Y-56240000D01*
X113669047Y-56287619D01*
X113716666Y-56382857D01*
X113764285Y-56573333D01*
X113764285Y-56811428D01*
X113716666Y-57001904D01*
X113669047Y-57097142D01*
X113621428Y-57144761D01*
X113526190Y-57192380D01*
X113430952Y-57192380D01*
X113335714Y-57144761D01*
X113288095Y-57097142D01*
X113240476Y-57001904D01*
X113192857Y-56811428D01*
X113192857Y-56573333D01*
X113240476Y-56382857D01*
X113288095Y-56287619D01*
X113335714Y-56240000D01*
X113430952Y-56192380D01*
X114621428Y-56525714D02*
X114621428Y-57192380D01*
X114383333Y-56144761D02*
X114145238Y-56859047D01*
X114764285Y-56859047D01*
X115335714Y-56192380D02*
X115430952Y-56192380D01*
X115526190Y-56240000D01*
X115573809Y-56287619D01*
X115621428Y-56382857D01*
X115669047Y-56573333D01*
X115669047Y-56811428D01*
X115621428Y-57001904D01*
X115573809Y-57097142D01*
X115526190Y-57144761D01*
X115430952Y-57192380D01*
X115335714Y-57192380D01*
X115240476Y-57144761D01*
X115192857Y-57097142D01*
X115145238Y-57001904D01*
X115097619Y-56811428D01*
X115097619Y-56573333D01*
X115145238Y-56382857D01*
X115192857Y-56287619D01*
X115240476Y-56240000D01*
X115335714Y-56192380D01*
X109907142Y-57802380D02*
X110526190Y-57802380D01*
X110192857Y-58183333D01*
X110335714Y-58183333D01*
X110430952Y-58230952D01*
X110478571Y-58278571D01*
X110526190Y-58373809D01*
X110526190Y-58611904D01*
X110478571Y-58707142D01*
X110430952Y-58754761D01*
X110335714Y-58802380D01*
X110050000Y-58802380D01*
X109954761Y-58754761D01*
X109907142Y-58707142D01*
X111002380Y-58802380D02*
X111192857Y-58802380D01*
X111288095Y-58754761D01*
X111335714Y-58707142D01*
X111430952Y-58564285D01*
X111478571Y-58373809D01*
X111478571Y-57992857D01*
X111430952Y-57897619D01*
X111383333Y-57850000D01*
X111288095Y-57802380D01*
X111097619Y-57802380D01*
X111002380Y-57850000D01*
X110954761Y-57897619D01*
X110907142Y-57992857D01*
X110907142Y-58230952D01*
X110954761Y-58326190D01*
X111002380Y-58373809D01*
X111097619Y-58421428D01*
X111288095Y-58421428D01*
X111383333Y-58373809D01*
X111430952Y-58326190D01*
X111478571Y-58230952D01*
X111859523Y-58754761D02*
X112002380Y-58802380D01*
X112240476Y-58802380D01*
X112335714Y-58754761D01*
X112383333Y-58707142D01*
X112430952Y-58611904D01*
X112430952Y-58516666D01*
X112383333Y-58421428D01*
X112335714Y-58373809D01*
X112240476Y-58326190D01*
X112050000Y-58278571D01*
X111954761Y-58230952D01*
X111907142Y-58183333D01*
X111859523Y-58088095D01*
X111859523Y-57992857D01*
X111907142Y-57897619D01*
X111954761Y-57850000D01*
X112050000Y-57802380D01*
X112288095Y-57802380D01*
X112430952Y-57850000D01*
X113192857Y-58278571D02*
X112859523Y-58278571D01*
X112859523Y-58802380D02*
X112859523Y-57802380D01*
X113335714Y-57802380D01*
X113907142Y-57802380D02*
X114002380Y-57802380D01*
X114097619Y-57850000D01*
X114145238Y-57897619D01*
X114192857Y-57992857D01*
X114240476Y-58183333D01*
X114240476Y-58421428D01*
X114192857Y-58611904D01*
X114145238Y-58707142D01*
X114097619Y-58754761D01*
X114002380Y-58802380D01*
X113907142Y-58802380D01*
X113811904Y-58754761D01*
X113764285Y-58707142D01*
X113716666Y-58611904D01*
X113669047Y-58421428D01*
X113669047Y-58183333D01*
X113716666Y-57992857D01*
X113764285Y-57897619D01*
X113811904Y-57850000D01*
X113907142Y-57802380D01*
X115097619Y-58135714D02*
X115097619Y-58802380D01*
X114859523Y-57754761D02*
X114621428Y-58469047D01*
X115240476Y-58469047D01*
X115811904Y-57802380D02*
X115907142Y-57802380D01*
X116002380Y-57850000D01*
X116050000Y-57897619D01*
X116097619Y-57992857D01*
X116145238Y-58183333D01*
X116145238Y-58421428D01*
X116097619Y-58611904D01*
X116050000Y-58707142D01*
X116002380Y-58754761D01*
X115907142Y-58802380D01*
X115811904Y-58802380D01*
X115716666Y-58754761D01*
X115669047Y-58707142D01*
X115621428Y-58611904D01*
X115573809Y-58421428D01*
X115573809Y-58183333D01*
X115621428Y-57992857D01*
X115669047Y-57897619D01*
X115716666Y-57850000D01*
X115811904Y-57802380D01*
X110907142Y-59745714D02*
X110907142Y-60412380D01*
X110669047Y-59364761D02*
X110430952Y-60079047D01*
X111050000Y-60079047D01*
X111478571Y-60412380D02*
X111669047Y-60412380D01*
X111764285Y-60364761D01*
X111811904Y-60317142D01*
X111907142Y-60174285D01*
X111954761Y-59983809D01*
X111954761Y-59602857D01*
X111907142Y-59507619D01*
X111859523Y-59460000D01*
X111764285Y-59412380D01*
X111573809Y-59412380D01*
X111478571Y-59460000D01*
X111430952Y-59507619D01*
X111383333Y-59602857D01*
X111383333Y-59840952D01*
X111430952Y-59936190D01*
X111478571Y-59983809D01*
X111573809Y-60031428D01*
X111764285Y-60031428D01*
X111859523Y-59983809D01*
X111907142Y-59936190D01*
X111954761Y-59840952D01*
X112716666Y-59888571D02*
X112383333Y-59888571D01*
X112383333Y-60412380D02*
X112383333Y-59412380D01*
X112859523Y-59412380D01*
X113430952Y-59412380D02*
X113526190Y-59412380D01*
X113621428Y-59460000D01*
X113669047Y-59507619D01*
X113716666Y-59602857D01*
X113764285Y-59793333D01*
X113764285Y-60031428D01*
X113716666Y-60221904D01*
X113669047Y-60317142D01*
X113621428Y-60364761D01*
X113526190Y-60412380D01*
X113430952Y-60412380D01*
X113335714Y-60364761D01*
X113288095Y-60317142D01*
X113240476Y-60221904D01*
X113192857Y-60031428D01*
X113192857Y-59793333D01*
X113240476Y-59602857D01*
X113288095Y-59507619D01*
X113335714Y-59460000D01*
X113430952Y-59412380D01*
X114621428Y-59745714D02*
X114621428Y-60412380D01*
X114383333Y-59364761D02*
X114145238Y-60079047D01*
X114764285Y-60079047D01*
X115335714Y-59412380D02*
X115430952Y-59412380D01*
X115526190Y-59460000D01*
X115573809Y-59507619D01*
X115621428Y-59602857D01*
X115669047Y-59793333D01*
X115669047Y-60031428D01*
X115621428Y-60221904D01*
X115573809Y-60317142D01*
X115526190Y-60364761D01*
X115430952Y-60412380D01*
X115335714Y-60412380D01*
X115240476Y-60364761D01*
X115192857Y-60317142D01*
X115145238Y-60221904D01*
X115097619Y-60031428D01*
X115097619Y-59793333D01*
X115145238Y-59602857D01*
X115192857Y-59507619D01*
X115240476Y-59460000D01*
X115335714Y-59412380D01*
X113519047Y-68412380D02*
X113757142Y-69412380D01*
X113947619Y-68698095D01*
X114138095Y-69412380D01*
X114376190Y-68412380D01*
X114757142Y-68888571D02*
X115090476Y-68888571D01*
X115233333Y-69412380D02*
X114757142Y-69412380D01*
X114757142Y-68412380D01*
X115233333Y-68412380D01*
D11*
G04 #@! TO.C,U1*
X117270000Y-51085000D02*
X118725000Y-51085000D01*
X108530000Y-65275000D02*
X107075000Y-65275000D01*
X118725000Y-51085000D02*
X118725000Y-52540000D01*
X107075000Y-52257218D02*
X107075000Y-52540000D01*
X117270000Y-65275000D02*
X118725000Y-65275000D01*
X108530000Y-51085000D02*
X108247218Y-51085000D01*
X108247218Y-51085000D02*
X107075000Y-52257218D01*
X118725000Y-65275000D02*
X118725000Y-63820000D01*
X107075000Y-65275000D02*
X107075000Y-63820000D01*
G04 #@! TO.C,REF\u002A\u002A*
X112960000Y-69250000D02*
X111560000Y-69250000D01*
X111560000Y-67850000D02*
X112960000Y-67850000D01*
X112960000Y-67850000D02*
X112960000Y-69250000D01*
X111560000Y-69250000D02*
X111560000Y-67850000D01*
G04 #@! TO.C,R1*
X113219420Y-48340000D02*
X113500580Y-48340000D01*
X113219420Y-49360000D02*
X113500580Y-49360000D01*
G04 #@! TD*
M02*
