G04 #@! TF.GenerationSoftware,KiCad,Pcbnew,(6.0.1-0)*
G04 #@! TF.CreationDate,2022-03-15T16:51:42-04:00*
G04 #@! TF.ProjectId,MBC1-TSOP32,4d424331-2d54-4534-9f50-33322e6b6963,rev?*
G04 #@! TF.SameCoordinates,Original*
G04 #@! TF.FileFunction,Copper,L1,Top*
G04 #@! TF.FilePolarity,Positive*
%FSLAX46Y46*%
G04 Gerber Fmt 4.6, Leading zero omitted, Abs format (unit mm)*
G04 Created by KiCad (PCBNEW (6.0.1-0)) date 2022-03-15 16:51:42*
%MOMM*%
%LPD*%
G01*
G04 APERTURE LIST*
G04 Aperture macros list*
%AMRoundRect*
0 Rectangle with rounded corners*
0 $1 Rounding radius*
0 $2 $3 $4 $5 $6 $7 $8 $9 X,Y pos of 4 corners*
0 Add a 4 corners polygon primitive as box body*
4,1,4,$2,$3,$4,$5,$6,$7,$8,$9,$2,$3,0*
0 Add four circle primitives for the rounded corners*
1,1,$1+$1,$2,$3*
1,1,$1+$1,$4,$5*
1,1,$1+$1,$6,$7*
1,1,$1+$1,$8,$9*
0 Add four rect primitives between the rounded corners*
20,1,$1+$1,$2,$3,$4,$5,0*
20,1,$1+$1,$4,$5,$6,$7,0*
20,1,$1+$1,$6,$7,$8,$9,0*
20,1,$1+$1,$8,$9,$2,$3,0*%
G04 Aperture macros list end*
G04 #@! TA.AperFunction,SMDPad,CuDef*
%ADD10R,1.000000X1.000000*%
G04 #@! TD*
G04 #@! TA.AperFunction,SMDPad,CuDef*
%ADD11R,0.250000X1.100000*%
G04 #@! TD*
G04 #@! TA.AperFunction,SMDPad,CuDef*
%ADD12RoundRect,0.237500X0.237500X-0.250000X0.237500X0.250000X-0.237500X0.250000X-0.237500X-0.250000X0*%
G04 #@! TD*
G04 #@! TA.AperFunction,SMDPad,CuDef*
%ADD13RoundRect,0.075000X-0.075000X0.700000X-0.075000X-0.700000X0.075000X-0.700000X0.075000X0.700000X0*%
G04 #@! TD*
G04 #@! TA.AperFunction,ViaPad*
%ADD14C,0.400000*%
G04 #@! TD*
G04 #@! TA.AperFunction,ViaPad*
%ADD15C,0.800000*%
G04 #@! TD*
G04 #@! TA.AperFunction,Conductor*
%ADD16C,0.200000*%
G04 #@! TD*
G04 #@! TA.AperFunction,Conductor*
%ADD17C,0.300000*%
G04 #@! TD*
G04 APERTURE END LIST*
D10*
G04 #@! TO.P,REF\u002A\u002A,*
G04 #@! TO.N,WE*
X108130000Y-58830000D03*
G04 #@! TD*
D11*
G04 #@! TO.P,REF\u002A\u002A,1*
G04 #@! TO.N,A11*
X117675000Y-49150000D03*
G04 #@! TO.P,REF\u002A\u002A,2*
G04 #@! TO.N,A9*
X117175000Y-49150000D03*
G04 #@! TO.P,REF\u002A\u002A,3*
G04 #@! TO.N,A8*
X116675000Y-49150000D03*
G04 #@! TO.P,REF\u002A\u002A,4*
G04 #@! TO.N,A13*
X116175000Y-49150000D03*
G04 #@! TO.P,REF\u002A\u002A,5*
G04 #@! TO.N,A14*
X115675000Y-49150000D03*
G04 #@! TO.P,REF\u002A\u002A,6*
G04 #@! TO.N,A17*
X115175000Y-49150000D03*
G04 #@! TO.P,REF\u002A\u002A,7*
G04 #@! TO.N,WE*
X114675000Y-49150000D03*
G04 #@! TO.P,REF\u002A\u002A,8*
G04 #@! TO.N,VCC*
X114175000Y-49150000D03*
G04 #@! TO.P,REF\u002A\u002A,9*
G04 #@! TO.N,A18*
X113675000Y-49150000D03*
G04 #@! TO.P,REF\u002A\u002A,10*
G04 #@! TO.N,A16*
X113175000Y-49150000D03*
G04 #@! TO.P,REF\u002A\u002A,11*
G04 #@! TO.N,A15*
X112675000Y-49150000D03*
G04 #@! TO.P,REF\u002A\u002A,12*
G04 #@! TO.N,A12*
X112175000Y-49150000D03*
G04 #@! TO.P,REF\u002A\u002A,13*
G04 #@! TO.N,A7*
X111675000Y-49150000D03*
G04 #@! TO.P,REF\u002A\u002A,14*
G04 #@! TO.N,A6*
X111175000Y-49150000D03*
G04 #@! TO.P,REF\u002A\u002A,15*
G04 #@! TO.N,A5*
X110675000Y-49150000D03*
G04 #@! TO.P,REF\u002A\u002A,16*
G04 #@! TO.N,A4*
X110175000Y-49150000D03*
G04 #@! TO.P,REF\u002A\u002A,17*
G04 #@! TO.N,A3*
X110175000Y-68650000D03*
G04 #@! TO.P,REF\u002A\u002A,18*
G04 #@! TO.N,A2*
X110675000Y-68650000D03*
G04 #@! TO.P,REF\u002A\u002A,19*
G04 #@! TO.N,A1*
X111175000Y-68650000D03*
G04 #@! TO.P,REF\u002A\u002A,20*
G04 #@! TO.N,A0*
X111675000Y-68650000D03*
G04 #@! TO.P,REF\u002A\u002A,21*
G04 #@! TO.N,D0*
X112175000Y-68650000D03*
G04 #@! TO.P,REF\u002A\u002A,22*
G04 #@! TO.N,D1*
X112675000Y-68650000D03*
G04 #@! TO.P,REF\u002A\u002A,23*
G04 #@! TO.N,D2*
X113175000Y-68650000D03*
G04 #@! TO.P,REF\u002A\u002A,24*
G04 #@! TO.N,GND*
X113675000Y-68650000D03*
G04 #@! TO.P,REF\u002A\u002A,25*
G04 #@! TO.N,D3*
X114175000Y-68650000D03*
G04 #@! TO.P,REF\u002A\u002A,26*
G04 #@! TO.N,D4*
X114675000Y-68650000D03*
G04 #@! TO.P,REF\u002A\u002A,27*
G04 #@! TO.N,D5*
X115175000Y-68650000D03*
G04 #@! TO.P,REF\u002A\u002A,28*
G04 #@! TO.N,D6*
X115675000Y-68650000D03*
G04 #@! TO.P,REF\u002A\u002A,29*
G04 #@! TO.N,D7*
X116175000Y-68650000D03*
G04 #@! TO.P,REF\u002A\u002A,30*
G04 #@! TO.N,CE*
X116675000Y-68650000D03*
G04 #@! TO.P,REF\u002A\u002A,31*
G04 #@! TO.N,A10*
X117175000Y-68650000D03*
G04 #@! TO.P,REF\u002A\u002A,32*
G04 #@! TO.N,/OE*
X117675000Y-68650000D03*
G04 #@! TD*
D12*
G04 #@! TO.P,REF\u002A\u002A,*
G04 #@! TO.N,WE*
X108050000Y-55852500D03*
G04 #@! TO.N,VCC*
X108050000Y-54027500D03*
G04 #@! TD*
D13*
G04 #@! TO.P,REF\u002A\u002A,1*
G04 #@! TO.N,N/C*
X117675000Y-49175000D03*
G04 #@! TO.P,REF\u002A\u002A,2*
X117175000Y-49175000D03*
G04 #@! TO.P,REF\u002A\u002A,3*
X116675000Y-49175000D03*
G04 #@! TO.P,REF\u002A\u002A,4*
X116175000Y-49175000D03*
G04 #@! TO.P,REF\u002A\u002A,5*
X115675000Y-49175000D03*
G04 #@! TO.P,REF\u002A\u002A,6*
X115175000Y-49175000D03*
G04 #@! TO.P,REF\u002A\u002A,7*
G04 #@! TO.N,WE*
X114675000Y-49175000D03*
G04 #@! TO.P,REF\u002A\u002A,8*
G04 #@! TO.N,VCC*
X114175000Y-49175000D03*
G04 #@! TO.P,REF\u002A\u002A,9*
G04 #@! TO.N,A18*
X113675000Y-49175000D03*
G04 #@! TO.P,REF\u002A\u002A,10*
G04 #@! TO.N,N/C*
X113175000Y-49175000D03*
G04 #@! TO.P,REF\u002A\u002A,11*
X112675000Y-49175000D03*
G04 #@! TO.P,REF\u002A\u002A,12*
X112175000Y-49175000D03*
G04 #@! TO.P,REF\u002A\u002A,13*
X111675000Y-49175000D03*
G04 #@! TO.P,REF\u002A\u002A,14*
X111175000Y-49175000D03*
G04 #@! TO.P,REF\u002A\u002A,15*
X110675000Y-49175000D03*
G04 #@! TO.P,REF\u002A\u002A,16*
X110175000Y-49175000D03*
G04 #@! TO.P,REF\u002A\u002A,17*
G04 #@! TO.N,A3*
X110175000Y-62025000D03*
G04 #@! TO.P,REF\u002A\u002A,18*
G04 #@! TO.N,A2*
X110675000Y-62025000D03*
G04 #@! TO.P,REF\u002A\u002A,19*
G04 #@! TO.N,A1*
X111175000Y-62025000D03*
G04 #@! TO.P,REF\u002A\u002A,20*
G04 #@! TO.N,A0*
X111675000Y-62025000D03*
G04 #@! TO.P,REF\u002A\u002A,21*
G04 #@! TO.N,D0*
X112175000Y-62025000D03*
G04 #@! TO.P,REF\u002A\u002A,22*
G04 #@! TO.N,D1*
X112675000Y-62025000D03*
G04 #@! TO.P,REF\u002A\u002A,23*
G04 #@! TO.N,D2*
X113175000Y-62025000D03*
G04 #@! TO.P,REF\u002A\u002A,24*
G04 #@! TO.N,GND*
X113675000Y-62025000D03*
G04 #@! TO.P,REF\u002A\u002A,25*
G04 #@! TO.N,D3*
X114175000Y-62025000D03*
G04 #@! TO.P,REF\u002A\u002A,26*
G04 #@! TO.N,D4*
X114675000Y-62025000D03*
G04 #@! TO.P,REF\u002A\u002A,27*
G04 #@! TO.N,D5*
X115175000Y-62025000D03*
G04 #@! TO.P,REF\u002A\u002A,28*
G04 #@! TO.N,D6*
X115675000Y-62025000D03*
G04 #@! TO.P,REF\u002A\u002A,29*
G04 #@! TO.N,D7*
X116175000Y-62025000D03*
G04 #@! TO.P,REF\u002A\u002A,30*
G04 #@! TO.N,CE*
X116675000Y-62025000D03*
G04 #@! TO.P,REF\u002A\u002A,31*
G04 #@! TO.N,A10*
X117175000Y-62025000D03*
G04 #@! TO.P,REF\u002A\u002A,32*
G04 #@! TO.N,/OE*
X117675000Y-62025000D03*
G04 #@! TD*
D14*
G04 #@! TO.N,VCC*
X108050000Y-49730000D03*
D15*
X119400000Y-49300000D03*
D14*
X114175000Y-50360000D03*
D15*
G04 #@! TO.N,A18*
X119400000Y-50570000D03*
D14*
X113675000Y-51120000D03*
G04 #@! TO.N,A17*
X115170000Y-52320000D03*
D15*
X119400000Y-51840000D03*
G04 #@! TO.N,A14*
X119400000Y-53110000D03*
D14*
X115675000Y-53110000D03*
G04 #@! TO.N,A13*
X116175000Y-54380000D03*
D15*
X119400000Y-54380000D03*
D14*
G04 #@! TO.N,A8*
X116675000Y-55650000D03*
D15*
X119400000Y-55650000D03*
D14*
G04 #@! TO.N,A9*
X117175000Y-56920000D03*
D15*
X119400000Y-56920000D03*
D14*
G04 #@! TO.N,A11*
X117675000Y-58190000D03*
D15*
X119400000Y-58190000D03*
D14*
G04 #@! TO.N,/OE*
X117675000Y-59460000D03*
D15*
X119400000Y-59460000D03*
G04 #@! TO.N,A10*
X119400000Y-60730000D03*
D14*
X117175000Y-60730000D03*
D15*
G04 #@! TO.N,CE*
X119400000Y-62000000D03*
D14*
X116675000Y-62000000D03*
D15*
G04 #@! TO.N,D7*
X119400000Y-63270000D03*
D14*
X116175000Y-63270000D03*
G04 #@! TO.N,D6*
X115675000Y-64540000D03*
D15*
X119400000Y-64540000D03*
G04 #@! TO.N,D5*
X119400000Y-65810000D03*
D14*
X115175000Y-65810000D03*
G04 #@! TO.N,D4*
X114675000Y-66340000D03*
D15*
X119400000Y-67080000D03*
D14*
G04 #@! TO.N,D3*
X114175000Y-67080000D03*
D15*
X119400000Y-68350000D03*
D14*
G04 #@! TO.N,GND*
X113675000Y-67900000D03*
D15*
X105850000Y-68350000D03*
D14*
G04 #@! TO.N,D2*
X113175000Y-67080000D03*
D15*
X105850000Y-67080000D03*
G04 #@! TO.N,D1*
X105850000Y-65810000D03*
D14*
X112675000Y-65810000D03*
D15*
G04 #@! TO.N,D0*
X105850000Y-64540000D03*
D14*
X112175000Y-64540000D03*
D15*
G04 #@! TO.N,A0*
X105850000Y-63270000D03*
D14*
X111675000Y-63270000D03*
G04 #@! TO.N,A1*
X111175000Y-62000000D03*
D15*
X105850000Y-62000000D03*
G04 #@! TO.N,A2*
X105850000Y-60730000D03*
D14*
X110675000Y-60730000D03*
D15*
G04 #@! TO.N,A3*
X105850000Y-59460000D03*
D14*
X110175000Y-59460000D03*
G04 #@! TO.N,A4*
X110175000Y-58190000D03*
D15*
X105850000Y-58190000D03*
D14*
G04 #@! TO.N,A5*
X110675000Y-56920000D03*
D15*
X105850000Y-56920000D03*
G04 #@! TO.N,A6*
X105850000Y-55650000D03*
D14*
X111175000Y-55650000D03*
D15*
G04 #@! TO.N,A7*
X105850000Y-54380000D03*
D14*
X111675000Y-54380000D03*
D15*
G04 #@! TO.N,A12*
X105850000Y-53110000D03*
D14*
X112175000Y-53110000D03*
G04 #@! TO.N,A15*
X112675000Y-51840000D03*
D15*
X105850000Y-51840000D03*
G04 #@! TO.N,A16*
X105850000Y-50570000D03*
D14*
X113175000Y-50570000D03*
D15*
G04 #@! TO.N,VPP*
X105850000Y-49300000D03*
G04 #@! TD*
D16*
G04 #@! TO.N,A17*
X115175000Y-49150000D02*
X115175000Y-52315000D01*
X115175000Y-52315000D02*
X115170000Y-52320000D01*
D17*
G04 #@! TO.N,VCC*
X114175000Y-49175000D02*
X114175000Y-50360000D01*
X108050000Y-49730000D02*
X108050000Y-54027500D01*
D16*
G04 #@! TO.N,A18*
X113675000Y-49175000D02*
X113675000Y-51120000D01*
G04 #@! TO.N,A14*
X115675000Y-49150000D02*
X115675000Y-53110000D01*
G04 #@! TO.N,A13*
X116175000Y-49150000D02*
X116175000Y-54380000D01*
G04 #@! TO.N,A8*
X116675000Y-49150000D02*
X116675000Y-55650000D01*
G04 #@! TO.N,A9*
X117175000Y-49150000D02*
X117175000Y-56920000D01*
G04 #@! TO.N,A11*
X117675000Y-49150000D02*
X117675000Y-58190000D01*
G04 #@! TO.N,/OE*
X117675000Y-68650000D02*
X117675000Y-59460000D01*
G04 #@! TO.N,A10*
X117175000Y-68650000D02*
X117175000Y-60730000D01*
G04 #@! TO.N,CE*
X116675000Y-68650000D02*
X116675000Y-62000000D01*
G04 #@! TO.N,D7*
X116175000Y-68650000D02*
X116175000Y-63270000D01*
X116175000Y-63270000D02*
X116175000Y-62025000D01*
G04 #@! TO.N,D6*
X115675000Y-68650000D02*
X115675000Y-64540000D01*
X115675000Y-64540000D02*
X115675000Y-62025000D01*
G04 #@! TO.N,D5*
X115175000Y-68650000D02*
X115175000Y-65810000D01*
X115175000Y-65810000D02*
X115175000Y-62025000D01*
G04 #@! TO.N,D4*
X114675000Y-68650000D02*
X114675000Y-67080000D01*
X114675000Y-67080000D02*
X114675000Y-62025000D01*
G04 #@! TO.N,D3*
X114175000Y-67600000D02*
X114175000Y-62025000D01*
X114175000Y-68650000D02*
X114175000Y-67600000D01*
D17*
G04 #@! TO.N,GND*
X113675000Y-67900000D02*
X113675000Y-68650000D01*
X113675000Y-62025000D02*
X113675000Y-67900000D01*
D16*
G04 #@! TO.N,D2*
X113175000Y-67080000D02*
X113175000Y-62025000D01*
X113175000Y-68650000D02*
X113175000Y-67080000D01*
G04 #@! TO.N,D1*
X112675000Y-65810000D02*
X112675000Y-62025000D01*
X112675000Y-68650000D02*
X112675000Y-65810000D01*
G04 #@! TO.N,D0*
X112175000Y-68650000D02*
X112175000Y-64540000D01*
X112175000Y-64540000D02*
X112175000Y-62025000D01*
G04 #@! TO.N,A0*
X111675000Y-63270000D02*
X111675000Y-62025000D01*
X111675000Y-68650000D02*
X111675000Y-63270000D01*
G04 #@! TO.N,A1*
X111175000Y-68650000D02*
X111175000Y-62000000D01*
G04 #@! TO.N,A2*
X110675000Y-68650000D02*
X110675000Y-60730000D01*
G04 #@! TO.N,A3*
X110175000Y-68650000D02*
X110175000Y-59460000D01*
G04 #@! TO.N,A4*
X110175000Y-49150000D02*
X110175000Y-58190000D01*
G04 #@! TO.N,A5*
X110675000Y-49150000D02*
X110675000Y-56920000D01*
G04 #@! TO.N,A6*
X111175000Y-49150000D02*
X111175000Y-55650000D01*
G04 #@! TO.N,A7*
X111675000Y-49150000D02*
X111675000Y-54380000D01*
G04 #@! TO.N,A12*
X112175000Y-49150000D02*
X112175000Y-53110000D01*
G04 #@! TO.N,A15*
X112675000Y-49150000D02*
X112675000Y-51840000D01*
G04 #@! TO.N,A16*
X113175000Y-49150000D02*
X113175000Y-50570000D01*
G04 #@! TO.N,WE*
X114675000Y-55142500D02*
X110987500Y-58830000D01*
X109390000Y-58800000D02*
X109420000Y-58830000D01*
X109390000Y-57192500D02*
X109390000Y-58800000D01*
X110987500Y-58830000D02*
X109420000Y-58830000D01*
X114675000Y-49175000D02*
X114675000Y-55142500D01*
X109420000Y-58830000D02*
X108130000Y-58830000D01*
X109390000Y-57192500D02*
X108050000Y-55852500D01*
G04 #@! TD*
M02*
