G04 #@! TF.GenerationSoftware,KiCad,Pcbnew,(6.0.1-0)*
G04 #@! TF.CreationDate,2022-03-14T11:09:26-04:00*
G04 #@! TF.ProjectId,MBC1-TSOP32,4d424331-2d54-4534-9f50-33322e6b6963,rev?*
G04 #@! TF.SameCoordinates,Original*
G04 #@! TF.FileFunction,Legend,Top*
G04 #@! TF.FilePolarity,Positive*
%FSLAX46Y46*%
G04 Gerber Fmt 4.6, Leading zero omitted, Abs format (unit mm)*
G04 Created by KiCad (PCBNEW (6.0.1-0)) date 2022-03-14 11:09:26*
%MOMM*%
%LPD*%
G01*
G04 APERTURE LIST*
%ADD10C,0.200000*%
%ADD11C,0.150000*%
%ADD12C,0.300000*%
%ADD13C,0.120000*%
%ADD14C,0.100000*%
G04 APERTURE END LIST*
D10*
X117271652Y-50803349D02*
G75*
G03*
X117271652Y-50803349I-371652J0D01*
G01*
D11*
X106788571Y-55538571D02*
X107321904Y-55538571D01*
X106483809Y-55729047D02*
X107055238Y-55919523D01*
X107055238Y-55424285D01*
X106521904Y-55195714D02*
X106521904Y-54662380D01*
X107321904Y-55005238D01*
X107321904Y-54357619D02*
X106521904Y-54357619D01*
X107321904Y-53900476D02*
X106864761Y-54243333D01*
X106521904Y-53900476D02*
X106979047Y-54357619D01*
D12*
X112163928Y-59653571D02*
X112092500Y-59582142D01*
X112021071Y-59439285D01*
X112021071Y-59082142D01*
X112092500Y-58939285D01*
X112163928Y-58867857D01*
X112306785Y-58796428D01*
X112449642Y-58796428D01*
X112663928Y-58867857D01*
X113521071Y-59725000D01*
X113521071Y-58796428D01*
X113521071Y-58082142D02*
X113521071Y-57796428D01*
X113449642Y-57653571D01*
X113378214Y-57582142D01*
X113163928Y-57439285D01*
X112878214Y-57367857D01*
X112306785Y-57367857D01*
X112163928Y-57439285D01*
X112092500Y-57510714D01*
X112021071Y-57653571D01*
X112021071Y-57939285D01*
X112092500Y-58082142D01*
X112163928Y-58153571D01*
X112306785Y-58225000D01*
X112663928Y-58225000D01*
X112806785Y-58153571D01*
X112878214Y-58082142D01*
X112949642Y-57939285D01*
X112949642Y-57653571D01*
X112878214Y-57510714D01*
X112806785Y-57439285D01*
X112663928Y-57367857D01*
X112735357Y-56225000D02*
X112735357Y-56725000D01*
X113521071Y-56725000D02*
X112021071Y-56725000D01*
X112021071Y-56010714D01*
X112021071Y-55153571D02*
X112021071Y-55010714D01*
X112092500Y-54867857D01*
X112163928Y-54796428D01*
X112306785Y-54725000D01*
X112592500Y-54653571D01*
X112949642Y-54653571D01*
X113235357Y-54725000D01*
X113378214Y-54796428D01*
X113449642Y-54867857D01*
X113521071Y-55010714D01*
X113521071Y-55153571D01*
X113449642Y-55296428D01*
X113378214Y-55367857D01*
X113235357Y-55439285D01*
X112949642Y-55510714D01*
X112592500Y-55510714D01*
X112306785Y-55439285D01*
X112163928Y-55367857D01*
X112092500Y-55296428D01*
X112021071Y-55153571D01*
X112521071Y-53367857D02*
X113521071Y-53367857D01*
X111949642Y-53725000D02*
X113021071Y-54082142D01*
X113021071Y-53153571D01*
X112021071Y-52296428D02*
X112021071Y-52153571D01*
X112092500Y-52010714D01*
X112163928Y-51939285D01*
X112306785Y-51867857D01*
X112592500Y-51796428D01*
X112949642Y-51796428D01*
X113235357Y-51867857D01*
X113378214Y-51939285D01*
X113449642Y-52010714D01*
X113521071Y-52153571D01*
X113521071Y-52296428D01*
X113449642Y-52439285D01*
X113378214Y-52510714D01*
X113235357Y-52582142D01*
X112949642Y-52653571D01*
X112592500Y-52653571D01*
X112306785Y-52582142D01*
X112163928Y-52510714D01*
X112092500Y-52439285D01*
X112021071Y-52296428D01*
X114436071Y-60439285D02*
X114436071Y-59510714D01*
X115007500Y-60010714D01*
X115007500Y-59796428D01*
X115078928Y-59653571D01*
X115150357Y-59582142D01*
X115293214Y-59510714D01*
X115650357Y-59510714D01*
X115793214Y-59582142D01*
X115864642Y-59653571D01*
X115936071Y-59796428D01*
X115936071Y-60225000D01*
X115864642Y-60367857D01*
X115793214Y-60439285D01*
X115936071Y-58796428D02*
X115936071Y-58510714D01*
X115864642Y-58367857D01*
X115793214Y-58296428D01*
X115578928Y-58153571D01*
X115293214Y-58082142D01*
X114721785Y-58082142D01*
X114578928Y-58153571D01*
X114507500Y-58225000D01*
X114436071Y-58367857D01*
X114436071Y-58653571D01*
X114507500Y-58796428D01*
X114578928Y-58867857D01*
X114721785Y-58939285D01*
X115078928Y-58939285D01*
X115221785Y-58867857D01*
X115293214Y-58796428D01*
X115364642Y-58653571D01*
X115364642Y-58367857D01*
X115293214Y-58225000D01*
X115221785Y-58153571D01*
X115078928Y-58082142D01*
X115864642Y-57510714D02*
X115936071Y-57296428D01*
X115936071Y-56939285D01*
X115864642Y-56796428D01*
X115793214Y-56725000D01*
X115650357Y-56653571D01*
X115507500Y-56653571D01*
X115364642Y-56725000D01*
X115293214Y-56796428D01*
X115221785Y-56939285D01*
X115150357Y-57225000D01*
X115078928Y-57367857D01*
X115007500Y-57439285D01*
X114864642Y-57510714D01*
X114721785Y-57510714D01*
X114578928Y-57439285D01*
X114507500Y-57367857D01*
X114436071Y-57225000D01*
X114436071Y-56867857D01*
X114507500Y-56653571D01*
X115150357Y-55510714D02*
X115150357Y-56010714D01*
X115936071Y-56010714D02*
X114436071Y-56010714D01*
X114436071Y-55296428D01*
X114436071Y-54439285D02*
X114436071Y-54296428D01*
X114507500Y-54153571D01*
X114578928Y-54082142D01*
X114721785Y-54010714D01*
X115007500Y-53939285D01*
X115364642Y-53939285D01*
X115650357Y-54010714D01*
X115793214Y-54082142D01*
X115864642Y-54153571D01*
X115936071Y-54296428D01*
X115936071Y-54439285D01*
X115864642Y-54582142D01*
X115793214Y-54653571D01*
X115650357Y-54725000D01*
X115364642Y-54796428D01*
X115007500Y-54796428D01*
X114721785Y-54725000D01*
X114578928Y-54653571D01*
X114507500Y-54582142D01*
X114436071Y-54439285D01*
X114936071Y-52653571D02*
X115936071Y-52653571D01*
X114364642Y-53010714D02*
X115436071Y-53367857D01*
X115436071Y-52439285D01*
X114436071Y-51582142D02*
X114436071Y-51439285D01*
X114507500Y-51296428D01*
X114578928Y-51225000D01*
X114721785Y-51153571D01*
X115007500Y-51082142D01*
X115364642Y-51082142D01*
X115650357Y-51153571D01*
X115793214Y-51225000D01*
X115864642Y-51296428D01*
X115936071Y-51439285D01*
X115936071Y-51582142D01*
X115864642Y-51725000D01*
X115793214Y-51796428D01*
X115650357Y-51867857D01*
X115364642Y-51939285D01*
X115007500Y-51939285D01*
X114721785Y-51867857D01*
X114578928Y-51796428D01*
X114507500Y-51725000D01*
X114436071Y-51582142D01*
D11*
X107662380Y-61680952D02*
X108662380Y-61442857D01*
X107948095Y-61252380D01*
X108662380Y-61061904D01*
X107662380Y-60823809D01*
X108138571Y-60442857D02*
X108138571Y-60109523D01*
X108662380Y-59966666D02*
X108662380Y-60442857D01*
X107662380Y-60442857D01*
X107662380Y-59966666D01*
X106682142Y-68778571D02*
X106872619Y-69311904D01*
X107063095Y-68778571D01*
X107786904Y-69311904D02*
X107329761Y-69311904D01*
X107558333Y-69311904D02*
X107558333Y-68511904D01*
X107482142Y-68626190D01*
X107405952Y-68702380D01*
X107329761Y-68740476D01*
X108129761Y-69235714D02*
X108167857Y-69273809D01*
X108129761Y-69311904D01*
X108091666Y-69273809D01*
X108129761Y-69235714D01*
X108129761Y-69311904D01*
X108663095Y-68511904D02*
X108739285Y-68511904D01*
X108815476Y-68550000D01*
X108853571Y-68588095D01*
X108891666Y-68664285D01*
X108929761Y-68816666D01*
X108929761Y-69007142D01*
X108891666Y-69159523D01*
X108853571Y-69235714D01*
X108815476Y-69273809D01*
X108739285Y-69311904D01*
X108663095Y-69311904D01*
X108586904Y-69273809D01*
X108548809Y-69235714D01*
X108510714Y-69159523D01*
X108472619Y-69007142D01*
X108472619Y-68816666D01*
X108510714Y-68664285D01*
X108548809Y-68588095D01*
X108586904Y-68550000D01*
X108663095Y-68511904D01*
D13*
G04 #@! TO.C,REF\u002A\u002A*
X107430000Y-58130000D02*
X108830000Y-58130000D01*
X108830000Y-58130000D02*
X108830000Y-59530000D01*
X108830000Y-59530000D02*
X107430000Y-59530000D01*
X107430000Y-59530000D02*
X107430000Y-58130000D01*
D14*
X118045000Y-68100000D02*
X118045000Y-48700000D01*
D13*
X109805000Y-49700000D02*
X109805000Y-68100000D01*
X107527500Y-55194724D02*
X107527500Y-54685276D01*
X108572500Y-55194724D02*
X108572500Y-54685276D01*
X109765000Y-55600000D02*
X109765000Y-61500000D01*
X118085000Y-55600000D02*
X118085000Y-61500000D01*
X118085000Y-55600000D02*
X118085000Y-48400000D01*
X109765000Y-55600000D02*
X109765000Y-49700000D01*
G04 #@! TD*
M02*
