G04 #@! TF.GenerationSoftware,KiCad,Pcbnew,(6.0.1-0)*
G04 #@! TF.CreationDate,2022-03-15T16:51:42-04:00*
G04 #@! TF.ProjectId,MBC1-TSOP32,4d424331-2d54-4534-9f50-33322e6b6963,rev?*
G04 #@! TF.SameCoordinates,Original*
G04 #@! TF.FileFunction,Soldermask,Bot*
G04 #@! TF.FilePolarity,Negative*
%FSLAX46Y46*%
G04 Gerber Fmt 4.6, Leading zero omitted, Abs format (unit mm)*
G04 Created by KiCad (PCBNEW (6.0.1-0)) date 2022-03-15 16:51:42*
%MOMM*%
%LPD*%
G01*
G04 APERTURE LIST*
%ADD10C,0.400000*%
%ADD11C,0.800000*%
G04 APERTURE END LIST*
D10*
X108050000Y-49730000D03*
D11*
X119400000Y-49300000D03*
D10*
X114175000Y-50360000D03*
D11*
X119400000Y-50570000D03*
D10*
X113675000Y-51120000D03*
X115170000Y-52320000D03*
D11*
X119400000Y-51840000D03*
X119400000Y-53110000D03*
D10*
X115675000Y-53110000D03*
X116175000Y-54380000D03*
D11*
X119400000Y-54380000D03*
D10*
X116675000Y-55650000D03*
D11*
X119400000Y-55650000D03*
D10*
X117175000Y-56920000D03*
D11*
X119400000Y-56920000D03*
D10*
X117675000Y-58190000D03*
D11*
X119400000Y-58190000D03*
D10*
X117675000Y-59460000D03*
D11*
X119400000Y-59460000D03*
X119400000Y-60730000D03*
D10*
X117175000Y-60730000D03*
D11*
X119400000Y-62000000D03*
D10*
X116675000Y-62000000D03*
D11*
X119400000Y-63270000D03*
D10*
X116175000Y-63270000D03*
X115675000Y-64540000D03*
D11*
X119400000Y-64540000D03*
X119400000Y-65810000D03*
D10*
X115175000Y-65810000D03*
X114675000Y-66340000D03*
D11*
X119400000Y-67080000D03*
D10*
X114175000Y-67080000D03*
D11*
X119400000Y-68350000D03*
D10*
X113675000Y-67900000D03*
D11*
X105850000Y-68350000D03*
D10*
X113175000Y-67080000D03*
D11*
X105850000Y-67080000D03*
X105850000Y-65810000D03*
D10*
X112675000Y-65810000D03*
D11*
X105850000Y-64540000D03*
D10*
X112175000Y-64540000D03*
D11*
X105850000Y-63270000D03*
D10*
X111675000Y-63270000D03*
X111175000Y-62000000D03*
D11*
X105850000Y-62000000D03*
X105850000Y-60730000D03*
D10*
X110675000Y-60730000D03*
D11*
X105850000Y-59460000D03*
D10*
X110175000Y-59460000D03*
X110175000Y-58190000D03*
D11*
X105850000Y-58190000D03*
D10*
X110675000Y-56920000D03*
D11*
X105850000Y-56920000D03*
X105850000Y-55650000D03*
D10*
X111175000Y-55650000D03*
D11*
X105850000Y-54380000D03*
D10*
X111675000Y-54380000D03*
D11*
X105850000Y-53110000D03*
D10*
X112175000Y-53110000D03*
X112675000Y-51840000D03*
D11*
X105850000Y-51840000D03*
X105850000Y-50570000D03*
D10*
X113175000Y-50570000D03*
D11*
X105850000Y-49300000D03*
M02*
