%FSLAX45Y45*%
G04 Gerber Fmt 4.5, Leading zero omitted, Abs format (unit mm)*
G04 Created by KiCad (PCBNEW (6.0.1-0)) date 2022-03-14 11:09:24*
%MOMM*%
%LPD*%
G01*
G04 APERTURE LIST*
%TA.AperFunction,Profile*%
%ADD10C,0.100000*%
%TD*%
%ADD11C,0.200000*%
%ADD12C,0.020000*%
%ADD13C,0.060000*%
G04 APERTURE END LIST*
D10*
X10585500Y-4802500D02*
X10586000Y-6970000D01*
X11939500Y-4802500D02*
X11940000Y-6970000D01*
X10586000Y-6970000D02*
X11940000Y-6970000D01*
X10585500Y-4802500D02*
X11939500Y-4802500D01*
D11*
D12*
X10795000Y-4963000D02*
X10815000Y-4983000D01*
X10815000Y-4963000D02*
X10795000Y-4983000D01*
X11007500Y-5809000D02*
X11027500Y-5829000D01*
X11027500Y-5809000D02*
X11007500Y-5829000D01*
X11007500Y-5936000D02*
X11027500Y-5956000D01*
X11027500Y-5936000D02*
X11007500Y-5956000D01*
X11057500Y-5682000D02*
X11077500Y-5702000D01*
X11077500Y-5682000D02*
X11057500Y-5702000D01*
X11057500Y-6063000D02*
X11077500Y-6083000D01*
X11077500Y-6063000D02*
X11057500Y-6083000D01*
X11107500Y-5555000D02*
X11127500Y-5575000D01*
X11127500Y-5555000D02*
X11107500Y-5575000D01*
X11107500Y-6190000D02*
X11127500Y-6210000D01*
X11127500Y-6190000D02*
X11107500Y-6210000D01*
X11157500Y-5428000D02*
X11177500Y-5448000D01*
X11177500Y-5428000D02*
X11157500Y-5448000D01*
X11157500Y-6317000D02*
X11177500Y-6337000D01*
X11177500Y-6317000D02*
X11157500Y-6337000D01*
X11207500Y-5301000D02*
X11227500Y-5321000D01*
X11227500Y-5301000D02*
X11207500Y-5321000D01*
X11207500Y-6444000D02*
X11227500Y-6464000D01*
X11227500Y-6444000D02*
X11207500Y-6464000D01*
X11257500Y-5174000D02*
X11277500Y-5194000D01*
X11277500Y-5174000D02*
X11257500Y-5194000D01*
X11257500Y-6571000D02*
X11277500Y-6591000D01*
X11277500Y-6571000D02*
X11257500Y-6591000D01*
X11307500Y-5047000D02*
X11327500Y-5067000D01*
X11327500Y-5047000D02*
X11307500Y-5067000D01*
X11307500Y-6698000D02*
X11327500Y-6718000D01*
X11327500Y-6698000D02*
X11307500Y-6718000D01*
X11357500Y-5102000D02*
X11377500Y-5122000D01*
X11377500Y-5102000D02*
X11357500Y-5122000D01*
X11357500Y-6780000D02*
X11377500Y-6800000D01*
X11377500Y-6780000D02*
X11357500Y-6800000D01*
X11407500Y-5026000D02*
X11427500Y-5046000D01*
X11427500Y-5026000D02*
X11407500Y-5046000D01*
X11407500Y-6750000D02*
X11427500Y-6770000D01*
X11427500Y-6750000D02*
X11407500Y-6770000D01*
X11457500Y-6698000D02*
X11477500Y-6718000D01*
X11477500Y-6698000D02*
X11457500Y-6718000D01*
X11507500Y-5174000D02*
X11527500Y-5194000D01*
X11527500Y-5174000D02*
X11507500Y-5194000D01*
X11507500Y-6571000D02*
X11527500Y-6591000D01*
X11527500Y-6571000D02*
X11507500Y-6591000D01*
X11557500Y-5301000D02*
X11577500Y-5321000D01*
X11577500Y-5301000D02*
X11557500Y-5321000D01*
X11557500Y-6444000D02*
X11577500Y-6464000D01*
X11577500Y-6444000D02*
X11557500Y-6464000D01*
X11607500Y-5428000D02*
X11627500Y-5448000D01*
X11627500Y-5428000D02*
X11607500Y-5448000D01*
X11607500Y-6317000D02*
X11627500Y-6337000D01*
X11627500Y-6317000D02*
X11607500Y-6337000D01*
X11657500Y-5555000D02*
X11677500Y-5575000D01*
X11677500Y-5555000D02*
X11657500Y-5575000D01*
X11657500Y-6190000D02*
X11677500Y-6210000D01*
X11677500Y-6190000D02*
X11657500Y-6210000D01*
X11707500Y-5682000D02*
X11727500Y-5702000D01*
X11727500Y-5682000D02*
X11707500Y-5702000D01*
X11707500Y-6063000D02*
X11727500Y-6083000D01*
X11727500Y-6063000D02*
X11707500Y-6083000D01*
X11757500Y-5809000D02*
X11777500Y-5829000D01*
X11777500Y-5809000D02*
X11757500Y-5829000D01*
X11757500Y-5936000D02*
X11777500Y-5956000D01*
X11777500Y-5936000D02*
X11757500Y-5956000D01*
D13*
X10615000Y-4930000D02*
G75*
G03*
X10615000Y-4930000I-30000J0D01*
G01*
X10615000Y-5057000D02*
G75*
G03*
X10615000Y-5057000I-30000J0D01*
G01*
X10615000Y-5184000D02*
G75*
G03*
X10615000Y-5184000I-30000J0D01*
G01*
X10615000Y-5311000D02*
G75*
G03*
X10615000Y-5311000I-30000J0D01*
G01*
X10615000Y-5438000D02*
G75*
G03*
X10615000Y-5438000I-30000J0D01*
G01*
X10615000Y-5565000D02*
G75*
G03*
X10615000Y-5565000I-30000J0D01*
G01*
X10615000Y-5692000D02*
G75*
G03*
X10615000Y-5692000I-30000J0D01*
G01*
X10615000Y-5819000D02*
G75*
G03*
X10615000Y-5819000I-30000J0D01*
G01*
X10615000Y-5946000D02*
G75*
G03*
X10615000Y-5946000I-30000J0D01*
G01*
X10615000Y-6073000D02*
G75*
G03*
X10615000Y-6073000I-30000J0D01*
G01*
X10615000Y-6200000D02*
G75*
G03*
X10615000Y-6200000I-30000J0D01*
G01*
X10615000Y-6327000D02*
G75*
G03*
X10615000Y-6327000I-30000J0D01*
G01*
X10615000Y-6454000D02*
G75*
G03*
X10615000Y-6454000I-30000J0D01*
G01*
X10615000Y-6581000D02*
G75*
G03*
X10615000Y-6581000I-30000J0D01*
G01*
X10615000Y-6708000D02*
G75*
G03*
X10615000Y-6708000I-30000J0D01*
G01*
X10615000Y-6835000D02*
G75*
G03*
X10615000Y-6835000I-30000J0D01*
G01*
X11970000Y-4930000D02*
G75*
G03*
X11970000Y-4930000I-30000J0D01*
G01*
X11970000Y-5057000D02*
G75*
G03*
X11970000Y-5057000I-30000J0D01*
G01*
X11970000Y-5184000D02*
G75*
G03*
X11970000Y-5184000I-30000J0D01*
G01*
X11970000Y-5311000D02*
G75*
G03*
X11970000Y-5311000I-30000J0D01*
G01*
X11970000Y-5438000D02*
G75*
G03*
X11970000Y-5438000I-30000J0D01*
G01*
X11970000Y-5565000D02*
G75*
G03*
X11970000Y-5565000I-30000J0D01*
G01*
X11970000Y-5692000D02*
G75*
G03*
X11970000Y-5692000I-30000J0D01*
G01*
X11970000Y-5819000D02*
G75*
G03*
X11970000Y-5819000I-30000J0D01*
G01*
X11970000Y-5946000D02*
G75*
G03*
X11970000Y-5946000I-30000J0D01*
G01*
X11970000Y-6073000D02*
G75*
G03*
X11970000Y-6073000I-30000J0D01*
G01*
X11970000Y-6200000D02*
G75*
G03*
X11970000Y-6200000I-30000J0D01*
G01*
X11970000Y-6327000D02*
G75*
G03*
X11970000Y-6327000I-30000J0D01*
G01*
X11970000Y-6454000D02*
G75*
G03*
X11970000Y-6454000I-30000J0D01*
G01*
X11970000Y-6581000D02*
G75*
G03*
X11970000Y-6581000I-30000J0D01*
G01*
X11970000Y-6708000D02*
G75*
G03*
X11970000Y-6708000I-30000J0D01*
G01*
X11970000Y-6835000D02*
G75*
G03*
X11970000Y-6835000I-30000J0D01*
G01*
D11*
X10838119Y-7285476D02*
X10838119Y-7085476D01*
X10885738Y-7085476D01*
X10914310Y-7095000D01*
X10933357Y-7114048D01*
X10942881Y-7133095D01*
X10952405Y-7171190D01*
X10952405Y-7199762D01*
X10942881Y-7237857D01*
X10933357Y-7256905D01*
X10914310Y-7275952D01*
X10885738Y-7285476D01*
X10838119Y-7285476D01*
X11038119Y-7285476D02*
X11038119Y-7152143D01*
X11038119Y-7190238D02*
X11047643Y-7171190D01*
X11057167Y-7161667D01*
X11076214Y-7152143D01*
X11095262Y-7152143D01*
X11161929Y-7285476D02*
X11161929Y-7152143D01*
X11161929Y-7085476D02*
X11152405Y-7095000D01*
X11161929Y-7104524D01*
X11171452Y-7095000D01*
X11161929Y-7085476D01*
X11161929Y-7104524D01*
X11285738Y-7285476D02*
X11266690Y-7275952D01*
X11257167Y-7256905D01*
X11257167Y-7085476D01*
X11390500Y-7285476D02*
X11371452Y-7275952D01*
X11361928Y-7256905D01*
X11361928Y-7085476D01*
X11619071Y-7285476D02*
X11619071Y-7085476D01*
X11685738Y-7228333D01*
X11752405Y-7085476D01*
X11752405Y-7285476D01*
X11933357Y-7285476D02*
X11933357Y-7180714D01*
X11923833Y-7161667D01*
X11904786Y-7152143D01*
X11866690Y-7152143D01*
X11847643Y-7161667D01*
X11933357Y-7275952D02*
X11914309Y-7285476D01*
X11866690Y-7285476D01*
X11847643Y-7275952D01*
X11838119Y-7256905D01*
X11838119Y-7237857D01*
X11847643Y-7218809D01*
X11866690Y-7209286D01*
X11914309Y-7209286D01*
X11933357Y-7199762D01*
X12028595Y-7152143D02*
X12028595Y-7352143D01*
X12028595Y-7161667D02*
X12047643Y-7152143D01*
X12085738Y-7152143D01*
X12104786Y-7161667D01*
X12114309Y-7171190D01*
X12123833Y-7190238D01*
X12123833Y-7247381D01*
X12114309Y-7266428D01*
X12104786Y-7275952D01*
X12085738Y-7285476D01*
X12047643Y-7285476D01*
X12028595Y-7275952D01*
X12209548Y-7266428D02*
X12219071Y-7275952D01*
X12209548Y-7285476D01*
X12200024Y-7275952D01*
X12209548Y-7266428D01*
X12209548Y-7285476D01*
X12209548Y-7161667D02*
X12219071Y-7171190D01*
X12209548Y-7180714D01*
X12200024Y-7171190D01*
X12209548Y-7161667D01*
X12209548Y-7180714D01*
D12*
X10560500Y-7605000D02*
X10580500Y-7625000D01*
X10580500Y-7605000D02*
X10560500Y-7625000D01*
D11*
X10876214Y-7505476D02*
X10895262Y-7505476D01*
X10914310Y-7515000D01*
X10923833Y-7524524D01*
X10933357Y-7543571D01*
X10942881Y-7581667D01*
X10942881Y-7629286D01*
X10933357Y-7667381D01*
X10923833Y-7686428D01*
X10914310Y-7695952D01*
X10895262Y-7705476D01*
X10876214Y-7705476D01*
X10857167Y-7695952D01*
X10847643Y-7686428D01*
X10838119Y-7667381D01*
X10828595Y-7629286D01*
X10828595Y-7581667D01*
X10838119Y-7543571D01*
X10847643Y-7524524D01*
X10857167Y-7515000D01*
X10876214Y-7505476D01*
X11028595Y-7686428D02*
X11038119Y-7695952D01*
X11028595Y-7705476D01*
X11019071Y-7695952D01*
X11028595Y-7686428D01*
X11028595Y-7705476D01*
X11114310Y-7524524D02*
X11123833Y-7515000D01*
X11142881Y-7505476D01*
X11190500Y-7505476D01*
X11209548Y-7515000D01*
X11219071Y-7524524D01*
X11228595Y-7543571D01*
X11228595Y-7562619D01*
X11219071Y-7591190D01*
X11104786Y-7705476D01*
X11228595Y-7705476D01*
X11352405Y-7505476D02*
X11371452Y-7505476D01*
X11390500Y-7515000D01*
X11400024Y-7524524D01*
X11409548Y-7543571D01*
X11419071Y-7581667D01*
X11419071Y-7629286D01*
X11409548Y-7667381D01*
X11400024Y-7686428D01*
X11390500Y-7695952D01*
X11371452Y-7705476D01*
X11352405Y-7705476D01*
X11333357Y-7695952D01*
X11323833Y-7686428D01*
X11314309Y-7667381D01*
X11304786Y-7629286D01*
X11304786Y-7581667D01*
X11314309Y-7543571D01*
X11323833Y-7524524D01*
X11333357Y-7515000D01*
X11352405Y-7505476D01*
X11542881Y-7505476D02*
X11561928Y-7505476D01*
X11580976Y-7515000D01*
X11590500Y-7524524D01*
X11600024Y-7543571D01*
X11609548Y-7581667D01*
X11609548Y-7629286D01*
X11600024Y-7667381D01*
X11590500Y-7686428D01*
X11580976Y-7695952D01*
X11561928Y-7705476D01*
X11542881Y-7705476D01*
X11523833Y-7695952D01*
X11514309Y-7686428D01*
X11504786Y-7667381D01*
X11495262Y-7629286D01*
X11495262Y-7581667D01*
X11504786Y-7543571D01*
X11514309Y-7524524D01*
X11523833Y-7515000D01*
X11542881Y-7505476D01*
X11695262Y-7705476D02*
X11695262Y-7572143D01*
X11695262Y-7591190D02*
X11704786Y-7581667D01*
X11723833Y-7572143D01*
X11752405Y-7572143D01*
X11771452Y-7581667D01*
X11780976Y-7600714D01*
X11780976Y-7705476D01*
X11780976Y-7600714D02*
X11790500Y-7581667D01*
X11809548Y-7572143D01*
X11838119Y-7572143D01*
X11857167Y-7581667D01*
X11866690Y-7600714D01*
X11866690Y-7705476D01*
X11961928Y-7705476D02*
X11961928Y-7572143D01*
X11961928Y-7591190D02*
X11971452Y-7581667D01*
X11990500Y-7572143D01*
X12019071Y-7572143D01*
X12038119Y-7581667D01*
X12047643Y-7600714D01*
X12047643Y-7705476D01*
X12047643Y-7600714D02*
X12057167Y-7581667D01*
X12076214Y-7572143D01*
X12104786Y-7572143D01*
X12123833Y-7581667D01*
X12133357Y-7600714D01*
X12133357Y-7705476D01*
X12523833Y-7495952D02*
X12352405Y-7753095D01*
X12780976Y-7505476D02*
X12800024Y-7505476D01*
X12819071Y-7515000D01*
X12828595Y-7524524D01*
X12838119Y-7543571D01*
X12847643Y-7581667D01*
X12847643Y-7629286D01*
X12838119Y-7667381D01*
X12828595Y-7686428D01*
X12819071Y-7695952D01*
X12800024Y-7705476D01*
X12780976Y-7705476D01*
X12761928Y-7695952D01*
X12752405Y-7686428D01*
X12742881Y-7667381D01*
X12733357Y-7629286D01*
X12733357Y-7581667D01*
X12742881Y-7543571D01*
X12752405Y-7524524D01*
X12761928Y-7515000D01*
X12780976Y-7505476D01*
X12933357Y-7686428D02*
X12942881Y-7695952D01*
X12933357Y-7705476D01*
X12923833Y-7695952D01*
X12933357Y-7686428D01*
X12933357Y-7705476D01*
X13066690Y-7505476D02*
X13085738Y-7505476D01*
X13104786Y-7515000D01*
X13114309Y-7524524D01*
X13123833Y-7543571D01*
X13133357Y-7581667D01*
X13133357Y-7629286D01*
X13123833Y-7667381D01*
X13114309Y-7686428D01*
X13104786Y-7695952D01*
X13085738Y-7705476D01*
X13066690Y-7705476D01*
X13047643Y-7695952D01*
X13038119Y-7686428D01*
X13028595Y-7667381D01*
X13019071Y-7629286D01*
X13019071Y-7581667D01*
X13028595Y-7543571D01*
X13038119Y-7524524D01*
X13047643Y-7515000D01*
X13066690Y-7505476D01*
X13257167Y-7505476D02*
X13276214Y-7505476D01*
X13295262Y-7515000D01*
X13304786Y-7524524D01*
X13314309Y-7543571D01*
X13323833Y-7581667D01*
X13323833Y-7629286D01*
X13314309Y-7667381D01*
X13304786Y-7686428D01*
X13295262Y-7695952D01*
X13276214Y-7705476D01*
X13257167Y-7705476D01*
X13238119Y-7695952D01*
X13228595Y-7686428D01*
X13219071Y-7667381D01*
X13209548Y-7629286D01*
X13209548Y-7581667D01*
X13219071Y-7543571D01*
X13228595Y-7524524D01*
X13238119Y-7515000D01*
X13257167Y-7505476D01*
X13390500Y-7505476D02*
X13523833Y-7505476D01*
X13438119Y-7705476D01*
X13609548Y-7705476D02*
X13647643Y-7705476D01*
X13666690Y-7695952D01*
X13676214Y-7686428D01*
X13695262Y-7657857D01*
X13704786Y-7619762D01*
X13704786Y-7543571D01*
X13695262Y-7524524D01*
X13685738Y-7515000D01*
X13666690Y-7505476D01*
X13628595Y-7505476D01*
X13609548Y-7515000D01*
X13600024Y-7524524D01*
X13590500Y-7543571D01*
X13590500Y-7591190D01*
X13600024Y-7610238D01*
X13609548Y-7619762D01*
X13628595Y-7629286D01*
X13666690Y-7629286D01*
X13685738Y-7619762D01*
X13695262Y-7610238D01*
X13704786Y-7591190D01*
X13780976Y-7505476D02*
X13780976Y-7543571D01*
X13857167Y-7505476D02*
X13857167Y-7543571D01*
X14152405Y-7781667D02*
X14142881Y-7772143D01*
X14123833Y-7743571D01*
X14114309Y-7724524D01*
X14104786Y-7695952D01*
X14095262Y-7648333D01*
X14095262Y-7610238D01*
X14104786Y-7562619D01*
X14114309Y-7534048D01*
X14123833Y-7515000D01*
X14142881Y-7486428D01*
X14152405Y-7476905D01*
X14209548Y-7505476D02*
X14333357Y-7505476D01*
X14266690Y-7581667D01*
X14295262Y-7581667D01*
X14314309Y-7591190D01*
X14323833Y-7600714D01*
X14333357Y-7619762D01*
X14333357Y-7667381D01*
X14323833Y-7686428D01*
X14314309Y-7695952D01*
X14295262Y-7705476D01*
X14238119Y-7705476D01*
X14219071Y-7695952D01*
X14209548Y-7686428D01*
X14409548Y-7524524D02*
X14419071Y-7515000D01*
X14438119Y-7505476D01*
X14485738Y-7505476D01*
X14504786Y-7515000D01*
X14514309Y-7524524D01*
X14523833Y-7543571D01*
X14523833Y-7562619D01*
X14514309Y-7591190D01*
X14400024Y-7705476D01*
X14523833Y-7705476D01*
X14761928Y-7705476D02*
X14761928Y-7505476D01*
X14847643Y-7705476D02*
X14847643Y-7600714D01*
X14838119Y-7581667D01*
X14819071Y-7572143D01*
X14790500Y-7572143D01*
X14771452Y-7581667D01*
X14761928Y-7591190D01*
X14971452Y-7705476D02*
X14952405Y-7695952D01*
X14942881Y-7686428D01*
X14933357Y-7667381D01*
X14933357Y-7610238D01*
X14942881Y-7591190D01*
X14952405Y-7581667D01*
X14971452Y-7572143D01*
X15000024Y-7572143D01*
X15019071Y-7581667D01*
X15028595Y-7591190D01*
X15038119Y-7610238D01*
X15038119Y-7667381D01*
X15028595Y-7686428D01*
X15019071Y-7695952D01*
X15000024Y-7705476D01*
X14971452Y-7705476D01*
X15152405Y-7705476D02*
X15133357Y-7695952D01*
X15123833Y-7676905D01*
X15123833Y-7505476D01*
X15304786Y-7695952D02*
X15285738Y-7705476D01*
X15247643Y-7705476D01*
X15228595Y-7695952D01*
X15219071Y-7676905D01*
X15219071Y-7600714D01*
X15228595Y-7581667D01*
X15247643Y-7572143D01*
X15285738Y-7572143D01*
X15304786Y-7581667D01*
X15314309Y-7600714D01*
X15314309Y-7619762D01*
X15219071Y-7638809D01*
X15390500Y-7695952D02*
X15409548Y-7705476D01*
X15447643Y-7705476D01*
X15466690Y-7695952D01*
X15476214Y-7676905D01*
X15476214Y-7667381D01*
X15466690Y-7648333D01*
X15447643Y-7638809D01*
X15419071Y-7638809D01*
X15400024Y-7629286D01*
X15390500Y-7610238D01*
X15390500Y-7600714D01*
X15400024Y-7581667D01*
X15419071Y-7572143D01*
X15447643Y-7572143D01*
X15466690Y-7581667D01*
X15542881Y-7781667D02*
X15552405Y-7772143D01*
X15571452Y-7743571D01*
X15580976Y-7724524D01*
X15590500Y-7695952D01*
X15600024Y-7648333D01*
X15600024Y-7610238D01*
X15590500Y-7562619D01*
X15580976Y-7534048D01*
X15571452Y-7515000D01*
X15552405Y-7486428D01*
X15542881Y-7476905D01*
D13*
X10580500Y-7879000D02*
G75*
G03*
X10580500Y-7879000I-30000J0D01*
G01*
D11*
X10876214Y-7769476D02*
X10895262Y-7769476D01*
X10914310Y-7779000D01*
X10923833Y-7788524D01*
X10933357Y-7807571D01*
X10942881Y-7845667D01*
X10942881Y-7893286D01*
X10933357Y-7931381D01*
X10923833Y-7950428D01*
X10914310Y-7959952D01*
X10895262Y-7969476D01*
X10876214Y-7969476D01*
X10857167Y-7959952D01*
X10847643Y-7950428D01*
X10838119Y-7931381D01*
X10828595Y-7893286D01*
X10828595Y-7845667D01*
X10838119Y-7807571D01*
X10847643Y-7788524D01*
X10857167Y-7779000D01*
X10876214Y-7769476D01*
X11028595Y-7950428D02*
X11038119Y-7959952D01*
X11028595Y-7969476D01*
X11019071Y-7959952D01*
X11028595Y-7950428D01*
X11028595Y-7969476D01*
X11209548Y-7769476D02*
X11171452Y-7769476D01*
X11152405Y-7779000D01*
X11142881Y-7788524D01*
X11123833Y-7817095D01*
X11114310Y-7855190D01*
X11114310Y-7931381D01*
X11123833Y-7950428D01*
X11133357Y-7959952D01*
X11152405Y-7969476D01*
X11190500Y-7969476D01*
X11209548Y-7959952D01*
X11219071Y-7950428D01*
X11228595Y-7931381D01*
X11228595Y-7883762D01*
X11219071Y-7864714D01*
X11209548Y-7855190D01*
X11190500Y-7845667D01*
X11152405Y-7845667D01*
X11133357Y-7855190D01*
X11123833Y-7864714D01*
X11114310Y-7883762D01*
X11352405Y-7769476D02*
X11371452Y-7769476D01*
X11390500Y-7779000D01*
X11400024Y-7788524D01*
X11409548Y-7807571D01*
X11419071Y-7845667D01*
X11419071Y-7893286D01*
X11409548Y-7931381D01*
X11400024Y-7950428D01*
X11390500Y-7959952D01*
X11371452Y-7969476D01*
X11352405Y-7969476D01*
X11333357Y-7959952D01*
X11323833Y-7950428D01*
X11314309Y-7931381D01*
X11304786Y-7893286D01*
X11304786Y-7845667D01*
X11314309Y-7807571D01*
X11323833Y-7788524D01*
X11333357Y-7779000D01*
X11352405Y-7769476D01*
X11542881Y-7769476D02*
X11561928Y-7769476D01*
X11580976Y-7779000D01*
X11590500Y-7788524D01*
X11600024Y-7807571D01*
X11609548Y-7845667D01*
X11609548Y-7893286D01*
X11600024Y-7931381D01*
X11590500Y-7950428D01*
X11580976Y-7959952D01*
X11561928Y-7969476D01*
X11542881Y-7969476D01*
X11523833Y-7959952D01*
X11514309Y-7950428D01*
X11504786Y-7931381D01*
X11495262Y-7893286D01*
X11495262Y-7845667D01*
X11504786Y-7807571D01*
X11514309Y-7788524D01*
X11523833Y-7779000D01*
X11542881Y-7769476D01*
X11695262Y-7969476D02*
X11695262Y-7836143D01*
X11695262Y-7855190D02*
X11704786Y-7845667D01*
X11723833Y-7836143D01*
X11752405Y-7836143D01*
X11771452Y-7845667D01*
X11780976Y-7864714D01*
X11780976Y-7969476D01*
X11780976Y-7864714D02*
X11790500Y-7845667D01*
X11809548Y-7836143D01*
X11838119Y-7836143D01*
X11857167Y-7845667D01*
X11866690Y-7864714D01*
X11866690Y-7969476D01*
X11961928Y-7969476D02*
X11961928Y-7836143D01*
X11961928Y-7855190D02*
X11971452Y-7845667D01*
X11990500Y-7836143D01*
X12019071Y-7836143D01*
X12038119Y-7845667D01*
X12047643Y-7864714D01*
X12047643Y-7969476D01*
X12047643Y-7864714D02*
X12057167Y-7845667D01*
X12076214Y-7836143D01*
X12104786Y-7836143D01*
X12123833Y-7845667D01*
X12133357Y-7864714D01*
X12133357Y-7969476D01*
X12523833Y-7759952D02*
X12352405Y-8017095D01*
X12780976Y-7769476D02*
X12800024Y-7769476D01*
X12819071Y-7779000D01*
X12828595Y-7788524D01*
X12838119Y-7807571D01*
X12847643Y-7845667D01*
X12847643Y-7893286D01*
X12838119Y-7931381D01*
X12828595Y-7950428D01*
X12819071Y-7959952D01*
X12800024Y-7969476D01*
X12780976Y-7969476D01*
X12761928Y-7959952D01*
X12752405Y-7950428D01*
X12742881Y-7931381D01*
X12733357Y-7893286D01*
X12733357Y-7845667D01*
X12742881Y-7807571D01*
X12752405Y-7788524D01*
X12761928Y-7779000D01*
X12780976Y-7769476D01*
X12933357Y-7950428D02*
X12942881Y-7959952D01*
X12933357Y-7969476D01*
X12923833Y-7959952D01*
X12933357Y-7950428D01*
X12933357Y-7969476D01*
X13066690Y-7769476D02*
X13085738Y-7769476D01*
X13104786Y-7779000D01*
X13114309Y-7788524D01*
X13123833Y-7807571D01*
X13133357Y-7845667D01*
X13133357Y-7893286D01*
X13123833Y-7931381D01*
X13114309Y-7950428D01*
X13104786Y-7959952D01*
X13085738Y-7969476D01*
X13066690Y-7969476D01*
X13047643Y-7959952D01*
X13038119Y-7950428D01*
X13028595Y-7931381D01*
X13019071Y-7893286D01*
X13019071Y-7845667D01*
X13028595Y-7807571D01*
X13038119Y-7788524D01*
X13047643Y-7779000D01*
X13066690Y-7769476D01*
X13209548Y-7788524D02*
X13219071Y-7779000D01*
X13238119Y-7769476D01*
X13285738Y-7769476D01*
X13304786Y-7779000D01*
X13314309Y-7788524D01*
X13323833Y-7807571D01*
X13323833Y-7826619D01*
X13314309Y-7855190D01*
X13200024Y-7969476D01*
X13323833Y-7969476D01*
X13390500Y-7769476D02*
X13514309Y-7769476D01*
X13447643Y-7845667D01*
X13476214Y-7845667D01*
X13495262Y-7855190D01*
X13504786Y-7864714D01*
X13514309Y-7883762D01*
X13514309Y-7931381D01*
X13504786Y-7950428D01*
X13495262Y-7959952D01*
X13476214Y-7969476D01*
X13419071Y-7969476D01*
X13400024Y-7959952D01*
X13390500Y-7950428D01*
X13685738Y-7769476D02*
X13647643Y-7769476D01*
X13628595Y-7779000D01*
X13619071Y-7788524D01*
X13600024Y-7817095D01*
X13590500Y-7855190D01*
X13590500Y-7931381D01*
X13600024Y-7950428D01*
X13609548Y-7959952D01*
X13628595Y-7969476D01*
X13666690Y-7969476D01*
X13685738Y-7959952D01*
X13695262Y-7950428D01*
X13704786Y-7931381D01*
X13704786Y-7883762D01*
X13695262Y-7864714D01*
X13685738Y-7855190D01*
X13666690Y-7845667D01*
X13628595Y-7845667D01*
X13609548Y-7855190D01*
X13600024Y-7864714D01*
X13590500Y-7883762D01*
X13780976Y-7769476D02*
X13780976Y-7807571D01*
X13857167Y-7769476D02*
X13857167Y-7807571D01*
X14152405Y-8045667D02*
X14142881Y-8036143D01*
X14123833Y-8007571D01*
X14114309Y-7988524D01*
X14104786Y-7959952D01*
X14095262Y-7912333D01*
X14095262Y-7874238D01*
X14104786Y-7826619D01*
X14114309Y-7798048D01*
X14123833Y-7779000D01*
X14142881Y-7750428D01*
X14152405Y-7740905D01*
X14209548Y-7769476D02*
X14333357Y-7769476D01*
X14266690Y-7845667D01*
X14295262Y-7845667D01*
X14314309Y-7855190D01*
X14323833Y-7864714D01*
X14333357Y-7883762D01*
X14333357Y-7931381D01*
X14323833Y-7950428D01*
X14314309Y-7959952D01*
X14295262Y-7969476D01*
X14238119Y-7969476D01*
X14219071Y-7959952D01*
X14209548Y-7950428D01*
X14409548Y-7788524D02*
X14419071Y-7779000D01*
X14438119Y-7769476D01*
X14485738Y-7769476D01*
X14504786Y-7779000D01*
X14514309Y-7788524D01*
X14523833Y-7807571D01*
X14523833Y-7826619D01*
X14514309Y-7855190D01*
X14400024Y-7969476D01*
X14523833Y-7969476D01*
X14761928Y-7969476D02*
X14761928Y-7769476D01*
X14847643Y-7969476D02*
X14847643Y-7864714D01*
X14838119Y-7845667D01*
X14819071Y-7836143D01*
X14790500Y-7836143D01*
X14771452Y-7845667D01*
X14761928Y-7855190D01*
X14971452Y-7969476D02*
X14952405Y-7959952D01*
X14942881Y-7950428D01*
X14933357Y-7931381D01*
X14933357Y-7874238D01*
X14942881Y-7855190D01*
X14952405Y-7845667D01*
X14971452Y-7836143D01*
X15000024Y-7836143D01*
X15019071Y-7845667D01*
X15028595Y-7855190D01*
X15038119Y-7874238D01*
X15038119Y-7931381D01*
X15028595Y-7950428D01*
X15019071Y-7959952D01*
X15000024Y-7969476D01*
X14971452Y-7969476D01*
X15152405Y-7969476D02*
X15133357Y-7959952D01*
X15123833Y-7940905D01*
X15123833Y-7769476D01*
X15304786Y-7959952D02*
X15285738Y-7969476D01*
X15247643Y-7969476D01*
X15228595Y-7959952D01*
X15219071Y-7940905D01*
X15219071Y-7864714D01*
X15228595Y-7845667D01*
X15247643Y-7836143D01*
X15285738Y-7836143D01*
X15304786Y-7845667D01*
X15314309Y-7864714D01*
X15314309Y-7883762D01*
X15219071Y-7902809D01*
X15390500Y-7959952D02*
X15409548Y-7969476D01*
X15447643Y-7969476D01*
X15466690Y-7959952D01*
X15476214Y-7940905D01*
X15476214Y-7931381D01*
X15466690Y-7912333D01*
X15447643Y-7902809D01*
X15419071Y-7902809D01*
X15400024Y-7893286D01*
X15390500Y-7874238D01*
X15390500Y-7864714D01*
X15400024Y-7845667D01*
X15419071Y-7836143D01*
X15447643Y-7836143D01*
X15466690Y-7845667D01*
X15542881Y-8045667D02*
X15552405Y-8036143D01*
X15571452Y-8007571D01*
X15580976Y-7988524D01*
X15590500Y-7959952D01*
X15600024Y-7912333D01*
X15600024Y-7874238D01*
X15590500Y-7826619D01*
X15580976Y-7798048D01*
X15571452Y-7779000D01*
X15552405Y-7750428D01*
X15542881Y-7740905D01*
M02*
