M48
; DRILL file {KiCad (6.0.1-0)} date Monday, March 14, 2022 at 11:09:23 AM
; FORMAT={-:-/ absolute / inch / decimal}
; #@! TF.CreationDate,2022-03-14T11:09:23-04:00
; #@! TF.GenerationSoftware,Kicad,Pcbnew,(6.0.1-0)
; #@! TF.FileFunction,Plated,1,2,PTH
FMAT,2
INCH
; #@! TA.AperFunction,Plated,PTH,ViaDrill
T1C0.0079
; #@! TA.AperFunction,Plated,PTH,ViaDrill
T2C0.0236
%
G90
G05
T1
X4.2539Y-1.9579
X4.3376Y-2.2909
X4.3376Y-2.3409
X4.3573Y-2.2409
X4.3573Y-2.3909
X4.377Y-2.1909
X4.377Y-2.4409
X4.3967Y-2.1409
X4.3967Y-2.4909
X4.4163Y-2.0909
X4.4163Y-2.5409
X4.436Y-2.0409
X4.436Y-2.5909
X4.4557Y-1.9909
X4.4557Y-2.6409
X4.4754Y-2.0126
X4.4754Y-2.6732
X4.4951Y-1.9827
X4.4951Y-2.6614
X4.5148Y-2.6409
X4.5344Y-2.0409
X4.5344Y-2.5909
X4.5541Y-2.0909
X4.5541Y-2.5409
X4.5738Y-2.1409
X4.5738Y-2.4909
X4.5935Y-2.1909
X4.5935Y-2.4409
X4.6132Y-2.2409
X4.6132Y-2.3909
X4.6329Y-2.2909
X4.6329Y-2.3409
T2
X4.1673Y-1.9409
X4.1673Y-1.9909
X4.1673Y-2.0409
X4.1673Y-2.0909
X4.1673Y-2.1409
X4.1673Y-2.1909
X4.1673Y-2.2409
X4.1673Y-2.2909
X4.1673Y-2.3409
X4.1673Y-2.3909
X4.1673Y-2.4409
X4.1673Y-2.4909
X4.1673Y-2.5409
X4.1673Y-2.5909
X4.1673Y-2.6409
X4.1673Y-2.6909
X4.7008Y-1.9409
X4.7008Y-1.9909
X4.7008Y-2.0409
X4.7008Y-2.0909
X4.7008Y-2.1409
X4.7008Y-2.1909
X4.7008Y-2.2409
X4.7008Y-2.2909
X4.7008Y-2.3409
X4.7008Y-2.3909
X4.7008Y-2.4409
X4.7008Y-2.4909
X4.7008Y-2.5409
X4.7008Y-2.5909
X4.7008Y-2.6409
X4.7008Y-2.6909
T0
M30
